<svg width="210.759" height="50.844" xmlns="http://www.w3.org/2000/svg"><path d="M64.17 9.848v17.676c0 1.07.245 1.318 1.316 1.318h.453c1.072 0 1.32-.248 1.32-1.318V9.848c0-1.071-.248-1.319-1.32-1.319h-.453c-1.07 0-1.317.248-1.317 1.319M23.96 27.59l-5.818-20.8c-1.3-4.775-2.388-6.381-6.079-6.381-3.734 0-4.776 1.606-6.122 6.381L.122 27.59c-.3 1.128-.088 1.432 1.085 1.432h.478c1.172 0 1.562-.3 1.867-1.432L9.37 6.401c.652-2.388 1.217-2.953 2.692-2.953 1.433 0 2 .565 2.65 2.953l5.86 21.189c.3 1.128.7 1.432 1.868 1.432h.434c1.173 0 1.39-.3 1.085-1.432m18.276-.355v-.412c0-1.03-.247-1.36-1.235-1.03a12.442 12.442 0 01-3.709.535c-4.49 0-6.427-1.4-6.427-5.645v-4c0-3.667 1.36-5.645 6.181-5.645a10.459 10.459 0 013.543.578c.99.329 1.236.041 1.236-.99v-.411c0-.907-.207-1.237-1.236-1.566a11.547 11.547 0 00-3.626-.536c-6.51 0-9.188 3.378-9.188 8.528v4.08c0 5.81 2.966 8.529 9.311 8.529a14.2 14.2 0 003.832-.536c.99-.288 1.318-.577 1.318-1.483m16.8.082v-.37c0-1.03-.289-1.319-1.236-1.071a16.149 16.149 0 01-3.667.411c-2.266 0-3.79-.989-3.79-4.368V11.451h6.675c1.03 0 1.277-.248 1.277-1.277v-.371c0-1.03-.248-1.278-1.277-1.278h-6.676V4.281c0-.906-.206-1.112-1.112-1.112h-.837c-.9.03-1.129.307-1.129 1.312l-.012 17.43c0 5.439 2.884 7.293 6.922 7.293a13.664 13.664 0 003.584-.411c1.072-.289 1.278-.7 1.278-1.484M67.71 2.176A1.987 1.987 0 0065.732.157a2.031 2.031 0 00-2.06 2.019 2.019 2.019 0 004.037 0m23.67 7.623c.247-1.03.081-1.278-.99-1.278h-.536c-1.07 0-1.4.248-1.648 1.278l-3.667 14.42c-.494 1.895-1.112 2.267-2.389 2.267-1.277 0-1.9-.372-2.39-2.267L76.05 9.799c-.248-1.03-.577-1.278-1.649-1.278h-.494c-1.07 0-1.236.248-.989 1.278l3.626 14.215c.99 3.831 1.937 5.19 5.6 5.19 3.625 0 4.573-1.359 5.562-5.19zm17.881 7.457H98.136v-1.36c0-3.584 2.06-5.026 5.563-5.026 3.42 0 5.563 1.442 5.563 5.026zm2.8 1.319c.09-.738.132-1.481.124-2.225 0-5.521-3.05-8.241-8.447-8.241-6.593 0-8.693 3.708-8.693 8.693v3.833c0 6.18 3.172 8.611 9.517 8.611a20 20 0 005.645-.783c1.154-.33 1.276-.7 1.276-1.483v-.371c0-1.031-.287-1.359-1.317-1.072a22.242 22.242 0 01-5.6.783c-4.49 0-6.428-1.442-6.428-5.232v-1.236h12.444c1.071 0 1.36-.206 1.483-1.277m20.742 8.981v-.453c0-1.03-.248-1.277-1.277-1.277h-9.313c-1.359 0-1.937-.576-1.937-1.937V3.462c0-1.113-.288-1.4-1.4-1.4h-.412c-1.112 0-1.4.289-1.4 1.4v20.93c0 3.09 1.32 4.45 4.451 4.45h10.013c1.03 0 1.277-.248 1.277-1.278m17.725-6.963c0 3.708-1.2 5.727-5.893 5.727-4.737 0-5.974-2.019-5.974-5.727v-3.832c0-3.749 1.237-5.727 5.974-5.727 4.7 0 5.893 1.978 5.893 5.727zm3.09 0v-3.832c0-5.439-2.389-8.652-8.983-8.652-6.509 0-9.063 3.295-9.063 8.652v3.832c0 5.439 2.431 8.653 9.063 8.653 6.47 0 8.983-3.3 8.983-8.653m19.716 0c0 3.708-1.2 5.727-5.892 5.727-4.738 0-5.974-2.019-5.974-5.727v-3.832c0-3.749 1.236-5.727 5.974-5.727 4.7 0 5.892 1.978 5.892 5.727zm3.09 0v-3.832c0-5.439-2.389-8.652-8.982-8.652-6.509 0-9.064 3.295-9.064 8.652v3.832c0 5.439 2.43 8.653 9.064 8.653 6.47 0 8.982-3.3 8.982-8.653m7.676 6.923V1.319c0-1.072-.246-1.319-1.318-1.319h-.453c-1.072 0-1.318.247-1.318 1.319v26.205c0 1.07.246 1.318 1.318 1.318h.452c1.072 0 1.318-.248 1.318-1.318m12.526.04l-7.292-7.869a2.344 2.344 0 01-.825-1.608 2.43 2.43 0 01.865-1.565l6.428-6.757c.947-.988.865-1.236-.535-1.236h-.495a3.3 3.3 0 00-2.925 1.236l-4.7 4.9c-1.4 1.442-1.689 2.225-1.689 3.337 0 1.155.288 2.1 1.69 3.585l5.52 5.974a3.23 3.23 0 002.926 1.278h.494c1.4 0 1.484-.248.536-1.278m10.151-4.884c0 .619-.279.869-1.089.869h-1.148v-1.12c0-.441.191-.618.618-.618h.618c.736 0 1 .279 1 .869m.958-.029c0-1.091-.6-1.679-1.944-1.679h-.706c-1.032 0-1.473.442-1.473 1.472v3.843c0 .324.074.4.4.4h.133c.324 0 .4-.074.4-.4v-1.915h1.015l1.031 1.915c.1.279.385.447.678.4h.117c.368 0 .412-.074.236-.4l-1.119-2a1.509 1.509 0 001.237-1.634m2.31 1.177a4.491 4.491 0 11-4.5-4.505 4.5 4.5 0 014.5 4.505m.708 0a5.2 5.2 0 10-10.4 0 5.2 5.2 0 0010.4 0m-86.464 20.647c-.067-.246-.152-.313-.408-.313h-.075c-.255 0-.3.067-.237.313l.9 3.294c.18.672.38 1.108 1.062 1.108a.965.965 0 00.472-.1c-.255.853-.568 1.355-1.306 1.43-.228.019-.294.058-.247.285l.02.084c.047.228.122.285.34.266 1.014-.067 1.6-.8 1.9-2.007l1.088-4.355c.057-.246.01-.313-.246-.313h-.085c-.256 0-.34.067-.4.313l-.786 3.266c-.1.426-.265.52-.53.52-.312 0-.455-.084-.578-.52zm-2.016 2.461c0 .852-.257 1.316-1.354 1.316s-1.364-.464-1.364-1.316v-.881c0-.86.275-1.314 1.364-1.314 1.09 0 1.354.454 1.354 1.314zm-3.428.01c0 1.288.672 1.978 2.074 1.978 1.457 0 2.072-.69 2.072-1.978v-.88a1.746 1.746 0 00-1.959-2 1.505 1.505 0 00-1.477.69v-2.253c0-.246-.057-.3-.3-.3h-.105c-.245 0-.3.058-.3.3zm47.285-1.182c0 1.362-.438 2.1-2.162 2.1-1.74 0-2.195-.741-2.195-2.1v-1.407c0-1.376.455-2.1 2.195-2.1 1.724 0 2.162.727 2.162 2.1zm1.136 0v-1.407c0-2-.878-3.177-3.3-3.177-2.39 0-3.329 1.209-3.329 3.177v1.407c0 2 .893 3.179 3.33 3.179 2.374 0 3.3-1.212 3.3-3.179m7.313 0c0 1.362-.44 2.1-2.164 2.1-1.74 0-2.194-.741-2.194-2.1v-1.407c0-1.376.454-2.1 2.194-2.1 1.724 0 2.164.727 2.164 2.1zm1.135 0v-1.407c0-2-.878-3.177-3.3-3.177-2.39 0-3.329 1.209-3.329 3.177v1.407c0 2 .894 3.179 3.33 3.179 2.374 0 3.3-1.212 3.3-3.179m-42.052-1.755c0-1.119.363-1.755 1.755-1.755s1.755.636 1.755 1.755v4.3c0 .394.092.484.484.484h.152c.393 0 .483-.09.483-.484v-4.3c0-1.119.35-1.755 1.771-1.755 1.392 0 1.741.636 1.741 1.755v4.3c0 .394.09.484.484.484h.165c.394 0 .484-.09.484-.484v-4.3c0-1.755-.772-2.829-2.874-2.829a2.272 2.272 0 00-2.33 1.256 2.211 2.211 0 00-2.315-1.256c-2.057 0-2.89 1.089-2.89 2.829v4.3c0 .394.091.484.484.484h.167c.394 0 .484-.09.484-.484zm11.795-2.179v6.491c0 .394.092.484.485.484h.165c.394 0 .485-.09.485-.484v-6.491c0-.393-.09-.484-.485-.484h-.165c-.393 0-.485.091-.485.484m1.3-2.814a.729.729 0 00-.727-.74.745.745 0 00-.757.74.742.742 0 001.484 0m2.19 6.794c0 2.134 1.09 3.133 3.42 3.133.475-.002.95-.07 1.406-.2.363-.106.485-.212.485-.544v-.151c0-.379-.092-.5-.455-.379a4.59 4.59 0 01-1.36.2c-1.65 0-2.36-.514-2.36-2.072v-1.469c0-1.345.5-2.072 2.267-2.072a3.86 3.86 0 011.3.212c.362.121.454.016.454-.363v-.152c0-.332-.076-.454-.454-.574a4.251 4.251 0 00-1.33-.2c-2.392 0-3.375 1.243-3.375 3.133zm8.231-1.952c0-1.029.3-1.6 1.453-1.6.157.001.313.012.47.031.377.061.468-.015.468-.393v-.152c0-.378-.075-.484-.454-.53a3.357 3.357 0 00-.484-.03 2.313 2.313 0 00-2.588 2.618v4.501c0 .394.092.485.485.485h.166c.394 0 .484-.091.484-.485zm20.365 2.995c0 1.5.787 2.029 1.755 2.029.09.001.182-.004.272-.016.348-.061.424-.182.424-.56v-.106c0-.378-.106-.394-.469-.394h-.076c-.453 0-.772-.24-.772-1.149v-7.973c0-.394-.09-.485-.484-.485h-.166c-.392 0-.484.091-.484.485zm8.778-2.314h-4.086v-.5c0-1.317.757-1.846 2.044-1.846 1.255 0 2.042.529 2.042 1.846zm1.074-.333c0-2.028-1.12-3.026-3.1-3.026-2.42 0-3.193 1.362-3.193 3.192v1.407c0 2.27 1.165 3.163 3.495 3.163.7.003 1.4-.094 2.072-.288.425-.12.47-.256.47-.544v-.137c0-.378-.106-.5-.484-.393a8.226 8.226 0 01-2.058.288c-1.65 0-2.36-.53-2.36-1.921v-.455h4.57c.392 0 .5-.076.544-.469.033-.271.048-.544.045-.817m7.293 1.558c0 1.362-.439 2.1-2.179 2.1-1.755 0-2.179-.741-2.179-2.1v-1.407c0-1.376.44-2.1 2.18-2.1 1.74 0 2.178.727 2.178 2.1zm1.134.015v-7.1c0-.392-.09-.484-.484-.484h-.166c-.393 0-.484.092-.484.484v3.6a2.419 2.419 0 00-2.36-1.105c-2.27 0-3.132 1.242-3.132 3.192v1.407c0 2.058.983 3.164 3.313 3.164 2.223 0 3.313-1.106 3.313-3.164" fill-rule="evenodd"/></svg>