<svg version="1.1" id="prefix__Calque_1" xmlns="http://www.w3.org/2000/svg" x="0" y="0" viewBox="0 0 819.2 105.2" xml:space="preserve"><style>.prefix__st0{fill:#000}</style><g id="prefix__Calque_2_1_"><g id="prefix__Calque_1-2"><path class="prefix__st0" d="M.1 102.5L35 6.6c.3-.8 1.1-1.3 1.9-1.3h15.3l24.2 66.6h-29c-1.1 0-2-.9-2-2 0-.2 0-.5.1-.7l5.1-14h3.1l-9.8-26.9-28 76.8H2c-1.1 0-2-.9-2-2 0-.1 0-.4.1-.6zM413.4 19l6.4-17.7c.4-1 1.5-1.6 2.6-1.2.5.2 1 .6 1.2 1.2l36.8 101.2c.4 1-.2 2.2-1.2 2.6-.2.1-.4.1-.7.1h-13.8L413.4 19zM349.8 102.5l34.9-95.9c.3-.8 1-1.3 1.9-1.3h15.2L426 71.8h-16.6l-6.1-16.6-9.8-26.9-28 76.8h-13.9c-1.1 0-2-.9-2-2 0-.2.1-.4.2-.6zM250.1 30v73.7c0 .8.7 1.5 1.5 1.5h9.8c.8 0 1.5-.7 1.5-1.5V30c0-.8-.7-1.5-1.5-1.5h-9.8c-.8 0-1.5.7-1.5 1.5zM506.7 28.4c-21.2 0-38.3 17.2-38.3 38.3s17.2 38.3 38.3 38.3S545 87.9 545 66.7c0-21.2-17.2-38.3-38.3-38.3zm0 63.9c-14.1 0-25.6-11.4-25.6-25.6 0-14.1 11.4-25.6 25.6-25.6 14.1 0 25.6 11.4 25.6 25.6-.1 14.1-11.5 25.6-25.6 25.6zM699.3 28.4c-21.2 0-38.3 17.1-38.3 38.3s17.1 38.3 38.3 38.3 38.3-17.1 38.3-38.3c0-21.1-17.1-38.2-38.3-38.3zm0 63.9c-14.1 0-25.5-11.4-25.5-25.5s11.4-25.5 25.5-25.5 25.5 11.4 25.5 25.5c.1 14.1-11.4 25.5-25.5 25.5zM232.6 28.4h-60.7c-.9 0-1.5.7-1.5 1.5 0 .2 0 .3.1.5l3.9 10.7h21.5v62.5c0 .8.7 1.5 1.5 1.5h9.7c.8 0 1.5-.7 1.5-1.5V41.2h21.5l3.9-10.7c.3-.8-.1-1.7-.9-2-.2-.1-.4-.1-.5-.1zM342.9 28.4h-11.6l-19.5 44.7-19.5-44.7h-11.7c-1.2 0-2 1-1.6 1.9l32.7 74.8.1-.2.1.2 32.7-74.8c.3-.9-.5-1.9-1.7-1.9zM614.8 28.4h-60.7c-.8 0-1.5.7-1.5 1.5 0 .2 0 .3.1.5l3.9 10.7h21.5v62.4c0 .9.7 1.5 1.5 1.5h9.7c.9 0 1.5-.7 1.5-1.5V41.2h21.5l3.9-10.7c.3-.8-.1-1.7-.9-2-.2-.1-.3-.1-.5-.1zM817.7 28.4H808c-.8 0-1.5.7-1.6 1.5v46.4l-52.8-47.9v75.2c0 .8.7 1.5 1.5 1.5h9.7c.8 0 1.5-.7 1.5-1.5V57.3l52.8 47.8V30c.1-.8-.6-1.5-1.4-1.6 0 .1 0 0 0 0zM632.3 30v73.6c0 .8.7 1.5 1.5 1.5h9.8c.8 0 1.5-.7 1.5-1.5V30c0-.9-.7-1.5-1.5-1.5h-9.8c-.9 0-1.5.7-1.5 1.5zM148.2 88.2c-.3-.8-1.2-1.2-2-.9-.1 0-.3.1-.4.2-4.4 3.3-9.8 5-15.3 5-.4 0-.9 0-1.3-.1s-1 0-1.5-.1c-.2 0-.4-.1-.6-.1-3.4-.5-6.7-1.7-9.7-3.4-.4-.3-.9-.6-1.3-.8l-.6-.4c-.7-.5-1.3-1-1.9-1.5l-.5-.5-1.2-1.2c-.4-.4-.5-.6-.7-.8s-.5-.6-.7-.9-.6-.8-.9-1.2l-.3-.5c-1.9-2.9-3.2-6.1-3.8-9.5 0-.1 0-.2-.1-.3l-.3-2.1c-.1-.7-.1-1.3-.1-2v-.9c0-.6 0-1.2.1-1.8 0-.4.1-.8.1-1.1s.1-.6.2-.9.2-.9.3-1.3c.1-.3.1-.5.2-.8.1-.5.3-.9.4-1.3.1-.2.2-.5.2-.7.3-.7.6-1.5.9-2.2.1-.1.1-.2.2-.3.3-.7.7-1.4 1.2-2.1.3-.4.5-.8.8-1.2.2-.2.3-.5.5-.7.3-.5.7-.9 1.1-1.3 0-.1.1-.1.1-.2 1.3-1.4 2.7-2.7 4.2-3.9.2-.2.5-.4.7-.5l.9-.6c.5-.3.9-.6 1.4-.8l.6-.3c.7-.4 1.5-.7 2.2-1 2.1-.9 4.4-1.5 6.7-1.7 7.4-.8 14.8 1.7 20.2 6.8.6.6 1.6.5 2.2-.1.1-.1.2-.3.3-.5l3.5-9.7c.2-.6 0-1.3-.5-1.8-7.9-5.9-17.7-8.6-27.5-7.5-4.7.6-9.3 2-13.4 4.2h-.1c-.2.1-.3.2-.5.3-.7.4-1.3.8-2 1.2l-1.3.8c-.4.3-.8.6-1.3.9s-1.1.8-1.6 1.3l-.7.6c-.6.5-1.3 1.1-1.8 1.7l-.2.2c-1.9 1.9-3.6 4-5 6.3-.3.4-.5.8-.8 1.2s-.4.8-.6 1.2c-.4.7-.8 1.4-1.1 2.2-.1.3-.3.6-.4.9-.4.8-.7 1.7-1 2.6-.1.2-.1.3-.2.5s-.1.3-.1.5c-.2.7-.4 1.3-.6 2-.1.4-.2.9-.3 1.3s-.2 1.1-.3 1.7-.2 1.1-.3 1.7c0 .2-.1.4-.1.7 0 .4-.1.8-.1 1.2s0 .5-.1.8c0 .9-.1 1.8-.1 2.8v.5c.2 9.4 3.9 18.5 10.4 25.4l.5.5c.6.6 1.2 1.2 1.9 1.8.2.2.4.4.7.6.6.5 1.2 1 1.8 1.4l.4.3c.8.6 1.7 1.2 2.5 1.7l.1.1s.1 0 .1.1c4.6 2.8 9.7 4.6 15.1 5.3l.6.1 1.1.1 1 .1h2.6c7.5-.1 14.8-2.3 21-6.5l-3.8-10.8z"/></g></g></svg>