<svg viewBox="0 0 1364.26 1364.26" xmlns="http://www.w3.org/2000/svg"><path d="m262.93 825.59 65.22-39.47a7.31 7.31 0 0 1 10.1 2.59c13.61 23.55 27.51 42.39 57.39 42.39 31.22 0 50.9-12.22 50.9-59.72v-315.75a7.3 7.3 0 0 1 7.3-7.3h80.41a7.3 7.3 0 0 1 7.31 7.3v317.11c0 98.4-57.69 143.2-141.84 143.2-72.69 0-116.21-36-139.46-80.68a7.33 7.33 0 0 1 2.67-9.67z" fill="#17243b"/><path d="m667 448.33h85.76a7.28 7.28 0 0 1 6.66 4.32l77.47 173.5c12.62 28.15 25.6 69.52 32 90.78a4.13 4.13 0 0 0 7.93 0c6.18-21.15 18.78-62.18 31.37-90.76l75.46-173.43a7.3 7.3 0 0 1 6.7-4.39h76.38a7.3 7.3 0 0 1 6.7 10.21l-195.9 451a7.31 7.31 0 0 1 -6.7 4.4 7.29 7.29 0 0 1 -6.65-4.3l-203.8-451a7.3 7.3 0 0 1 6.62-10.33z" fill="#17243b"/><path d="m1021 378.17a487.28 487.28 0 0 0 -75.69-97.75 11.69 11.69 0 0 0 -1.72-1.42c-1.3-.89-8.18-5-15.49 1.53-.51.45-1.24 1.13-2.16 2-1.55 1.48-3.77 3.66-6.61 6.47-4.72 4.68-11.25 11.22-19.4 19.45-13.86 14-27.83 28.2-28 28.34a12 12 0 0 0 .07 16.9 377.63 377.63 0 0 1 111.36 268.72 377.53 377.53 0 0 1 -111.31 268.72 384.61 384.61 0 0 1 -58 47.69 12 12 0 0 0 -3.37 16.54c42.05 64.36 44.64 67.09 45.49 68a12 12 0 0 0 8.57 3.74h.17c4 0 6.25-1.67 9.37-4 1.46-1.07 3.54-2.63 6.11-4.57 3.61-2.74 11-8.36 19.71-15.29 14-11.08 33.22-26.82 45.24-38.84 91.35-91.35 141.66-212.81 141.66-342a482.71 482.71 0 0 0 -66-244.23z" fill="#d5a015"/><path d="m615.08 1028.23a6 6 0 0 0 -6-6c-110.89 0-215.14-43.18-293.55-121.59a415.33 415.33 0 0 1 -104.8-176 6 6 0 0 0 -1.22-2.37c-2.32-2.76-5.28-2.32-9.37-1.71-2.3.34-5.62.89-9.87 1.64-7.07 1.26-16.86 3.09-29.09 5.44-20.8 4-41.76 8.19-42 8.23a6 6 0 0 0 -4.61 7.47 512.34 512.34 0 0 0 132 226.23c96.83 96.84 225.58 150.16 362.53 150.16a6 6 0 0 0 5.93-6.89c-.27-4.78-.12-52.93.05-84.61z" fill="#1f7765"/><path d="m585.87 845.63a8.5 8.5 0 0 0 -5.85-3.17 212.6 212.6 0 0 1 -96.69-389.52c1.46-1 2.95-1.89 4.45-2.82a8.5 8.5 0 0 0 2.88-11.48l-37.42-64.82a8.51 8.51 0 0 0 -12.51-2.52c-.27.12-.76.3-1.1.42a22 22 0 0 0 -4.53 2.08 305.25 305.25 0 0 0 91 553.2c12.11 3 33.44 6.13 42 7.34a9.36 9.36 0 0 0 1.18.08 8.51 8.51 0 0 0 8.42-7.39l9.91-75a8.5 8.5 0 0 0 -1.74-6.4z" fill="#91d5c6"/><path d="m1056 1062-56.31-56.31a12 12 0 0 0 -16.92 0 548.75 548.75 0 0 1 -43.12 38.44c-96.08 76.94-212.37 117.6-336.28 117.6a547.44 547.44 0 0 1 -95-8.28 12 12 0 0 0 -14 10.06c-5 33.91-10.92 72.22-12.06 77a12 12 0 0 0 9.45 15.23 653 653 0 0 0 111.58 9.59 643.08 643.08 0 0 0 210.9-35.24 636.2 636.2 0 0 0 186.17-101.93 657.41 657.41 0 0 0 55.53-49.16 12 12 0 0 0 0-17z" fill="#d8632a"/><path d="m1066.69 448.33h-76.38a7.3 7.3 0 0 0 -6.7 4.39l-75.46 173.43c-12.59 28.58-25.19 69.61-31.37 90.76a4.13 4.13 0 0 1 -7.93 0c-6.36-21.26-19.34-62.63-32-90.78l-77.47-173.5a7.28 7.28 0 0 0 -6.66-4.32h-85.72a7.3 7.3 0 0 0 -6.66 10.31l120.82 267.38h176l116.19-267.47a7.3 7.3 0 0 0 -6.66-10.2z" fill="#17243b"/><path d="m446.54 577.48v193.9c0 47.5-19.68 59.72-50.9 59.72-29.88 0-43.78-18.84-57.39-42.39a7.31 7.31 0 0 0 -10.1-2.59l-2.09 1.27v113.07c20.28 9.74 44.64 15.48 73.66 15.48 84.15 0 141.84-44.8 141.84-143.2v-195.26z" fill="#17243b"/><path d="m951 185.54c-.16-.11-.33-.19-.49-.29a553.71 553.71 0 0 0 -162.89-90.57 559.34 559.34 0 0 0 -186-31.55c-1.33 0-2.67 0-4 0h-1.81a8 8 0 0 0 -7.92 8v79.67a8 8 0 0 0 8 8h.1 5.63c108.67 0 210.22 36.25 293.69 104.81a8 8 0 0 0 5.08 1.82 7.24 7.24 0 0 0 1.13-.08 8 8 0 0 0 5.47-3.4c18.67-27.27 39.86-57.73 44.37-63.39a8 8 0 0 0 2.81-4.18 8.13 8.13 0 0 0 -3.17-8.84z" fill="#384f8e"/></svg>