<?xml version="1.0" encoding="UTF-8"?>
<svg width="316.95mm" height="179.46mm" version="1.1" viewBox="0 0 316.95 179.46" xmlns="http://www.w3.org/2000/svg" xmlns:cc="http://creativecommons.org/ns#" xmlns:dc="http://purl.org/dc/elements/1.1/" xmlns:rdf="http://www.w3.org/1999/02/22-rdf-syntax-ns#">
 <metadata>
  <rdf:RDF>
   <cc:Work rdf:about="">
    <dc:format>image/svg+xml</dc:format>
    <dc:type rdf:resource="http://purl.org/dc/dcmitype/StillImage"/>
    <dc:title/>
   </cc:Work>
  </rdf:RDF>
 </metadata>
 <g transform="translate(52.64 -58.435)">
  <path d="m20.486 59.424c9.7719-0.78317 19.586-1.1218 29.386-0.94192 23.086 0.32808 46.115 3.2879 68.58 8.5901 24.458 3.4008 48.556 9.4474 71.681 18.122 8.0257 2.9916 15.928 6.3182 23.686 9.9519 5.0306 2.3566 9.9907 4.8577 14.88 7.4965 7.7752 4.0464 15.173 8.8265 22.147 14.136 0.9878 0.87841 2.3389 1.5593 2.7552 2.9069 1.7004 4.8119 3.4537 9.6097 4.8789 14.51 1.21 1.3617 2.6846 2.4694 3.9052 3.8276 0.21167 0.37748 0.254 0.83256 0.35629 1.2559 1.5064 8.0116 2.1378 16.277 0.92781 24.373-1.1677 8.1315-4.3462 15.97-9.1722 22.617-7.0767 9.1193-14.302 18.122-21.509 27.139-1.397 2.3036-3.235 4.2933-4.8754 6.4276-4.1381 5.1435-8.2656 10.308-12.686 15.222-0.91371 1.0266-1.8768 2.0285-2.9951 2.8399-1.4676-1.5628-1.7251-3.803-1.7886-5.8491-0.0106-3.5207 0.97719-7.1296 3.1503-9.9413 6.3324-7.1261 12.072-14.75 17.776-22.38 2.0002-3.1432 4.385-6.0113 6.5652-9.0276 4.057-5.7256 8.1633-11.419 11.839-17.403 1.718-2.5224 3.1538-5.2634 4.1204-8.1598-1.6404-3.9158-3.4008-7.7788-4.9248-11.74-0.92782-2.4977-1.778-5.08-1.8239-7.7646-0.0459-1.1395 0.25046-2.3072-0.15171-3.4043-1.33-4.3709-3.8418-8.3644-7.0238-11.62-0.87489-1.1077-2.4236-0.9525-3.6654-0.79023-1.5169 0.20461-2.7058 1.5663-2.794 3.0798-0.2681 2.6564 0.83963 5.3093 2.4871 7.3554 0.83608 1.0901 2.2437 1.4746 3.1962 2.4377 2.2825 2.1696 3.048 5.4998 2.8434 8.5549-0.1905 2.3178-0.6209 4.6814-1.7322 6.7522-3.429 6.798-6.738 13.674-10.763 20.144-1.9085 3.2985-4.0075 6.7028-7.2637 8.83-1.4887 1.0054-3.3161 1.2524-5.0729 1.1677-9.8002-0.0176-19.6-0.0705-29.4-0.27516-5.3728-0.0529-10.724-0.61031-16.09-0.82903-3.7747-0.21167-7.5494-0.44097-11.296-0.95603-5.7468-0.74436-11.585-2.3354-16.249-5.9126-5.0059-3.7924-8.3996-9.2181-11.264-14.707-2.3671-1.136-3.9829-3.3161-5.1823-5.5774-2.2366-4.2933-3.4608-9.0205-4.4662-13.727-0.82197-4.0287-1.4217-8.1033-1.7568-12.199-0.40922-3.8735-1.8203-7.867-4.8542-10.46-2.286-2.0144-5.3058-2.8434-8.262-3.2068-3.0304-0.74789-6.3359-0.90312-9.2251 0.44097-3.9511 1.7392-6.5546 5.4857-8.2338 9.3239-3.0233 6.0396-6.4876 11.913-10.82 17.113-2.6882 3.1186-5.8843 6.3288-10.149 6.9462-3.1926 2.667-6.3853 5.4222-10.082 7.3978-4.5367 2.5753-9.7966 3.6795-14.99 3.4608-0.04586-4e-3 -0.13758-7e-3 -0.17992-7e-3 -5.902-0.46919-11.628-2.0849-17.258-3.8241-6.096-1.9614-12.266-3.6689-18.306-5.8032-7.3272-2.6317-14.654-5.274-21.943-8.0116-2.3072-0.98425-4.8189-1.5275-6.9603-2.8575-1.2206-0.88548-2.0814-2.1696-2.7728-3.489-1.2312-2.5541-1.905-5.334-2.3671-8.1174-1.5769-7.9411-2.2049-16.027-3.0127-24.074-0.27164-3.4819 0.52564-7.0979 2.3495-10.086 1.0689-1.6616 2.5929-3.108 4.4803-3.7712 1.2241-0.44803 2.6106-0.39864 3.743-1.1077 2.1696-1.2982 4.0605-3.2879 4.7978-5.7503 0.47625-1.3864 0.01058-3.0798-1.2559-3.877-1.1677-0.74083-2.6988-1.4499-4.0287-0.68439-3.9017 1.8062-7.4577 4.4379-10.227 7.7399-1.4146 1.5275-1.5169 3.7465-2.6564 5.4434-3.2844 5.3657-8.3291 9.3133-12.39 14.033-0.35631 1.9897 0.09525 4.0217 0.33514 6.0008 1.4958 9.1052 3.8453 18.041 6.2195 26.949 0.85372 3.0974 1.6898 6.1983 2.6 9.2781 2.1837 7.4789 4.4344 14.944 7.0732 22.278 0.63147 1.8344 1.5487 3.5913 1.8133 5.5351 0.52917 3.6266-0.16228 7.4401-1.9756 10.633-0.63147 1.1395-1.5487 2.1237-2.727 2.7093-1.6757-2.734-2.5859-5.8455-3.7324-8.823-6.1242-17.441-11.525-35.13-16.976-52.793-2.5541-8.0398-3.0656-16.725-1.4252-25.005 1.584-8.2832 5.1364-16.062 9.4932-23.237 0.39511-0.62794 0.74083-1.3053 1.2524-1.8486 1.5416-0.79022 3.2103-1.2947 4.7766-2.0391 0.28928-0.13406 0.51506-0.33514 0.68792-0.60678 2.9457-3.9617 6.2583-7.6341 9.4544-11.391 0.68792-0.88547 1.8662-1.0654 2.8575-1.4288 7.5953-2.3248 15.416-3.8453 23.252-5.1082 6.7698-1.0619 13.578-1.8591 20.408-2.4059m-3.2702 7.5706c-3.3549 0.20814-6.7239 0.3175-10.065 0.73025-2.4694 0.31397-4.9742 0.79375-7.1543 2.0602-0.74083 0.67028-1.5346 1.3758-1.778 2.3918-0.64911 2.1802-1.3899 4.3356-2.0955 6.4982-0.1517 0.30692-0.30692 0.61736-0.45861 0.9278l0.07408 0.61031-0.23636-0.08467c-0.02117 0.18697-0.0635 0.56444-0.08467 0.75142l-0.11289-0.0035c-0.23283 0.72672-0.49036 1.4464-0.74436 2.1696-0.03175 0.10583-0.09525 0.31397-0.127 0.41981-0.80081 2.0849-1.5346 4.1945-2.3178 6.2865-0.89606 2.3883-1.7674 4.7907-2.6987 7.1649-0.33514 0.79728-0.45156 1.6581-0.46919 2.5188-0.03881 5.1788 0.77964 10.312 1.6651 15.402 0.29281 1.7216 0.63853 3.4361 0.93839 5.1576 0.4833 2.1978 0.91722 4.4062 1.4005 6.604 0.09525 0.42686 0.19403 0.8643 0.28928 1.2982 0.22578 0.95955 0.45156 1.9262 0.59267 2.9069 0.07056 0.0847 0.2152 0.26105 0.28575 0.34572 0.55739 3.8276 1.7392 7.5424 2.5964 11.31 0.30692 0.96661 0.30339 2.2578 1.3794 2.7305 5.1752 3.1715 10.739 5.6409 16.288 8.0751 6.4982 2.5188 13.032 5.1329 19.883 6.5228 5.8102 1.6263 12.164 2.3107 18.052 0.62089 6.41-2.6176 11.853-7.2919 16.041-12.749 0.73378-1.0372 1.4358-2.1026 2.0532-3.2138 0.14112-0.19403 0.42687-0.57855 0.56798-0.77258l0.0177 7e-3c0.13758-0.3422 0.27869-0.68439 0.42333-1.0195 0.11994-0.11289 0.35983-0.34219 0.47978-0.45508 0.0388-0.15523 0.11641-0.46567 0.15169-0.62089 0.11642-0.18345 0.3422-0.55034 0.45508-0.73378 0.0953-0.19756 0.28575-0.59619 0.381-0.79375 0.43039-0.89606 0.93487-1.7533 1.3335-2.6599 0.56445-1.1606 1.0971-2.3354 1.6686-3.4925 1.0866-2.8998 2.9563-5.5774 3.0798-8.7595 0.18345-0.0529 0.55386-0.16227 0.73731-0.21872 0.92075-1.7604 1.5381-3.6654 2.3283-5.4857 0.41628-1.0372 0.83256-2.0743 1.2418-3.1115 1.524-3.7924 2.9175-7.6341 4.3074-11.479 0.26105-0.73378 0.52211-1.464 0.78316-2.1978 0.26459-0.75847 0.52564-1.5205 0.79022-2.2754l0.0952-7e-3c0.11995-0.44097 0.24342-0.88195 0.37395-1.3159 0.76553-2.4694 1.6263-4.9107 2.3566-7.3907 0.23284-0.75142 0.49389-1.4993 0.61384-2.2754l0.0494 0.17639c0.4445-1.6369 0.88547-3.2773 1.3335-4.9107 0.17286-0.69497 0.34219-1.3899 0.51152-2.0779l-0.28222 0.01764 0.29281-0.02117c0.14816-0.68439 0.29633-1.3652 0.42686-2.0496l0.13405-0.01764c0.0106-0.31397 0.0388-0.94897 0.0529-1.2629 0.0706-0.17286 0.20814-0.51506 0.2787-0.68792 0.35277-0.28575 0.14463-0.79375 0.20461-1.1712 0.0564-0.48683 0.11994-0.96661 0.18344-1.4464 0.18697-1.1642 0.26811-2.3424 0.32456-3.5207 0.0141-0.24694 0.0423-0.74789 0.0564-0.99836-10.721-1.4111-21.484-2.5224-32.265-3.3232-7.6165-0.6985-15.258-1.1289-22.895-1.4429-7.9269-0.31397-15.882-0.40569-23.788 0.3422m119.04 11.649c-0.40216 1.0936-0.762 2.2049-1.0689 3.3338-1.0442 4.4873-1.5381 9.084-1.9085 13.67-0.0706 0.83608-0.13406 1.6757-0.22578 2.5118l0.10231 0.0071c-0.0459 0.35278-0.14111 1.0619-0.18697 1.4146 0 0.07408 0 0.22578-4e-3 0.30339-0.0177 0.60678-0.0282 1.2171-0.0247 1.8274l-0.10231 7e-3c-0.0106 0.79375-0.0176 1.5875-0.0141 2.3848l-0.26458 7e-3 0.20461 0.0176c-0.0811 2.4836-0.15875 4.9706-0.22225 7.4577-0.127 6.0008-0.0212 12.002 0.0988 18.006 0.0423 1.33 0.13405 2.6635 0.17639 3.997 4e-3 1.8309 0.1023 3.6618 0.24694 5.4892 0.14817 3.803 0.40217 7.6094 0.86431 11.388 0.10936-0.0988 0.32103-0.29986 0.42686-0.39864-0.11289 0.37747-0.23636 0.75495-0.36336 1.1289 0.21519 1.3864 0.37394 2.7799 0.6738 4.1522l-0.0635 0.31397 0.43745-0.0388c0.26811 0.73377 0.32455 1.5064 0.32103 2.286l0.43744-0.20814-0.15875 0.53975h0.30339c0.11289 0.35983 0.23636 0.71966 0.37394 1.083l0.0988 0.15875c0.0212 0.25753 0.0635 0.76906 0.0847 1.0266l-0.16228-0.0353c-0.0706 0.0847-0.21167 0.25752-0.28575 0.34572 0.0741 1.6016 1.0195 3.0339 1.5558 4.5261 1.3758 2.8857 2.9739 5.6762 4.953 8.195 1.6933 2.1484 3.5595 4.318 6.096 5.4857 5.8279 3.3267 12.665 4.0252 19.223 4.6567 4.9812 0.37747 9.9766 0.33866 14.965 0.28222 6.8086-0.26459 13.66-0.65264 20.341-2.0849 1.1148-1.6334 2.2648-3.242 3.3726-4.8824 0.37748-0.55739 0.75848-1.1112 1.1501-1.6616 0.38806-0.63147 0.97014-1.2277 1.1501-1.9403 1.9473-2.5682 3.6548-5.3058 5.4151-8.0045 0.86784-1.3652 2.3671-3.1468 0.99484-4.699l0.30337 0.0212c0.29633-5.5351 0.35983-11.095 1.0372-16.598l0.53624-0.20813c-0.0459 0.27163-0.13052 0.82197-0.1764 1.0936-0.58912 1.8309-0.46567 3.7818-0.57502 5.6797-0.14817 1.8415-0.5221 3.6654-0.54327 5.5174 0.067 2.152 0.0635 4.3074 0.0988 6.4664 1.4605-2.1378 2.7058-4.4062 4.0922-6.5864 0.43392-0.78317 0.87842-1.5628 1.3229-2.3354 0.97012-1.7392 1.9262-3.4819 2.8222-5.2599 0.4445-0.889 0.89607-1.778 1.2347-2.7129l0.3034-0.2293c0.31395-1.0936 0.75142-2.1449 1.1289-3.2138l-0.63852 0.0212c0.21167-0.0212 0.635-0.067 0.84667-0.0882v-0.45508c0.33867-1.8874 0.11642-3.8065 0.16581-5.708-0.0388-3.6971 0.13404-7.3978 0.014-11.095 0.11993-2.4306 0.12348-4.8613 0.254-7.2919l-0.10584-0.15875c0.12348-1.1571 0.19402-2.3178 0.26107-3.4784-0.0212-0.64559-0.0459-1.2876-0.0706-1.9262-1.7992 0.0212-3.6018 0.23989-5.3975 0.0423 1.7709-0.0776 3.5454-0.0882 5.3199-0.15875-0.33515-0.58208-0.67029-1.1536-1.016-1.7216l-0.13054 0.0106c-2.4941-2.7164-5.969-4.3392-9.3133-5.7185-2.8716-1.4358-5.8526-2.6529-8.77-3.9793-0.1905-0.127-0.37394-0.254-0.55033-0.37394l-0.1023 0.0177c-3.0798-1.3123-6.1701-2.6035-9.3239-3.7112-0.40217-0.16581-0.80081-0.32808-1.1924-0.48683l-0.10583 0.02117c-3.5031-1.2982-7.052-2.4624-10.601-3.6195-16.528-5.2493-33.263-9.8496-50.14-13.825z" fill="#171f3c" stroke-width=".35278"/>
 </g>
</svg>
