<?xml version="1.0" encoding="UTF-8"?>
<svg id="Layer_2" data-name="Layer 2" xmlns="http://www.w3.org/2000/svg" viewBox="0 0 848.91 526.09">
  <defs>
    <style>
      .cls-1 {
        fill: #203659;
      }

      .cls-2 {
        fill: #151f34;
      }

      .cls-3 {
        fill: #18243b;
      }

      .cls-4 {
        fill: #ebe3b5;
        opacity: .5;
        stroke: #ccc;
        stroke-miterlimit: 10;
      }
    </style>
  </defs>
  <g id="Calque_1" data-name="Calque 1">
    <g>
      <path class="cls-2" d="M552.07,267.81c8.72,0,15.39,3.44,17.94,4.79,6.55,3.47,11.34,9.09,20.25,20.5,9.92,12.7,15.55,20.89,15.55,20.89,28.53,41.5,31.42,58.08,31.42,58.08,0,0-5.73,5.1-6.63,5.43-8.79,3.3-18.67-4.67-20.86-6.44-4.54-3.67-6.79-7.26-12.8-18.32-5.66-10.41-14.2-26.2-24.64-48.38-.03-.06-.85-1.77-2.5-5.18-4.76-9.86-7.17-14.82-8.65-16.06-5.33-4.49-13.1-3.38-16.36-2.91-7.96,1.14-15.14,6.95-15.14,6.95,0,0-25.35,84.71-32.11,98.92-1.86,3.91-4.36,8.6-9.56,11.81-2.41,1.49-4.93,3.42-7.89,2.94-5-.8-9.08-13.23-9.08-13.23,0,0,6.06-13.96,13.17-23.63,2.99-4.07,7.65-15.43,16.97-38.15,13.09-31.9,12.68-34.81,19.12-41.74,3.49-3.76,15.13-16.27,31.78-16.26Z"/>
      <g>
        <path class="cls-1" d="M97.66,514.85c.76,.29,10.52,9.89,10.52,9.89,0,0,2.75-3.52,4.68-9.6,1.93-6.08,1.04-31.35,1.04-31.35,0,0-1.37-13.68-3.21-21.81-1.57-6.98-2.49-8.58-7.84-26.04-5.18-16.89-5.62-19.62-5.89-21.87-.61-5.16-.65-10.71,1.4-23.83,1.5-9.6,3.46-19.08,8.57-38.7,6.52-25.03,7.02-23.78,9.15-34.77,1.72-8.87,2.33-14.51,5.25-27.96,2.14-9.85,3.25-14.86,5.16-19.48,2.08-5.03,5.42-11.25,16.18-23.33,3.2-3.6,12.01-13.27,29.32-27.93,14.12-11.97,25.67-20.29,30.4-23.64,9.42-6.67,21.27-14.49,35.46-22.6,14.16-8.09,27.62-15.7,46.62-22.46,8.64-3.07,15.13-5.34,24.42-6.71,5.72-.84,13.93-1.01,30.12-1.31,5.87-.11,11.55-.21,19.58-.2,16.21,.01,28.26,.45,29.94,.5,44.17,1.42,214.41-28.06,253.47-40.39,8.62-2.72,17.51-4.57,26.1-7.4,3.61-1.19,8.73-2.95,15.95-3.68,1.81-.18,6.47-.58,12.47-.05,7.43,.65,12.71,2.34,21.72,5.27,2.02,.66,7.25,2.4,15.55,5.74,16.36,6.57,27.19,15.17,27.19,15.17,0,0,1.09,13-.18,16.96-23.11,72.17-67.31,148.52-67.31,148.52s-22.61,39.05-45.72,74.03c-8.19,12.4-12.29,18.6-16.93,24.33-5.88,7.28-10.94,15.24-17.25,22.15-1.9,2.09-4.88,5.23-6.51,10.32-1.42,4.44-1.14,8.27-.82,12.6,.45,6.12,.71,9.7,3.3,13.33,.61,.86,3.76,5.28,8.94,6.26,5.87,1.11,11.07-2.81,13.58-4.67,10.34-7.69,21.92-13.66,32.03-21.65,9.77-7.72,10.71-7.14,30.85-20.58,36.61-24.43,54.91-36.65,68.83-50.24,13.61-13.29,35.25-38.66,47.27-75.59,11.22-34.46,8.81-62.86,6.69-87.9-2.56-30.19-4.52-53.29-18.14-74.89-16.27-25.8-44.25-41.65-86.15-52.41-149.08-38.28-340.8,19.36-340.8,19.36-115.48,34.71-211.72,63.64-270.91,152.16-38.43,57.47-47.35,119.26-48.92,131.1-3.59,27.04-5.4,68.72,10.99,111.15,0,0,6.55,33.75,33.84,44.2Z"/>
        <path class="cls-1" d="M343.51,132.67c-1.75,2.84-5.42,17.73-5.42,17.73,0,0,6.98,.27,14.09-1.18,10.12-2.07,17.55-1.59,29.74-.81,16.54,1.06,29,5.65,36.46,8.46,5.8,2.19,16.41,6.62,28.44,14.54,15.02,9.9,24.34,20.04,26.47,22.41,2.63,2.92,13.08,14.76,21.84,33.34,8.05,17.08,10.86,31.78,11.95,38.8,1.85,12.01,3.7,24.02,.53,36.92-4.45,18.09-6.45,22.79-6.45,22.79-1.61,3.78-2.4,7.93-2.4,7.93,0,0,6.46-2.5,10.14-6.84,3.43-4.05,3.8-6.83,8.28-19.49,2.8-7.91,4.24-11.94,6.17-15.62,2.39-4.55,4.91-9.33,9.98-13.95,2.82-2.56,7.79-7.09,15.68-8.55,8.56-1.58,15.4,1.39,18.22,2.67,7.3,3.3,11.38,8.28,15.83,13.72,7.49,9.14,11.1,15.91,11.1,15.91,1.73,3.12,4.99,7.43,9.65,11.57,2.37,2.11,10.18,4.07,10.18,4.07,0,0-3.67-10.01-9.88-21.72,0,0-6.32-11.93-11.65-27.7-6.77-20.05-7.12-37.22-7.24-46.18-.1-7.89-.18-20.37,3.59-36.19,2.03-8.52,5.38-22.01,15.07-36.98,3.7-5.72,11.4-16.39,24.21-26.29,8.27-6.39,15.24-11.77,25.95-14.51,12.87-3.29,23.06-3.84,23.06-3.84,0,0-14.48-17.4-15.6-18.21-56.48-40.7-293.25,7.06-317.99,47.2Z"/>
        <path class="cls-3" d="M356.7,34.45c-21.96,5.28-48.99,11.88-81.97,24.53-42.12,16.16-71.88,33.73-89.75,44.4-24.25,14.47-50.6,30.38-80.71,57.33-19.82,17.74-40.25,36.03-59.72,66.73-20.68,32.61-28.65,60.88-35.57,85.46C-.95,348.13-.52,365.94,.51,376.55c1.87,19.36,7.53,33.44,9.01,37.01,5.09,12.24,10.9,20.5,18.97,31.98,3.22,4.58,10.55,13.71,25.2,31.95,12.61,15.7,13.96,17.12,17.55,22.38,4.45,6.51,13.55,19.4,13.55,19.4l3.34,4.56s4.32,1.85,5.95,2.1c.65,.1,2.27,.31,5.95,.02,6.93-.55,8.14-1.2,8.14-1.2,0,0-.79-4.23-1.73-5.69-3.75-5.85-6.58-12.72-10.38-18.08-3.8-5.36-7.31-10.26-11.29-16.17-6.24-9.24-9.39-13.96-11.43-19.12-.91-2.31-3.4-9.03-4.15-18.11-.47-5.74-.11-10.71,1.45-20.42,2.75-17.04,5.71-27.88,5.71-27.88,15.59-57.17,15.64-50.66,17.54-62.6,1.4-8.83,3.02-22.71,9.62-37.67,.86-1.96,2.53-5.56,4.53-9.58,2.3-4.61,6.68-13.35,12.96-23,1.28-1.97,7.13-10.88,17.45-22.77,3.28-3.78,13.88-15.77,31.97-31.15,18.08-15.37,33.14-25.19,44.81-32.74,21.94-14.19,39.55-23.23,52.47-29.11,8.84-4.02,18.67-8.01,31.39-10.86,3.28-.73,7.61-1.36,16.25-2.69,16.55-2.54,24.83-3.81,29.13-3.99,12.95-.53,31.24,.74,35.3,1.64,.38,.09,1.9,.45,3.91,.32,2-.13,3.47-.68,4.03-.89,4.12-1.54,8.44-2.61,12.41-4.5,6.74-3.21,27.74-8.6,50.63-13.39,30.62-6.4,54.79-9.67,62.32-10.65,12.24-1.6,32.57-4.21,58.31-5.6,16.55-.89,25.82-.76,38.91-2.16,6.91-.73,19.5-2.38,24.98-1.89,.56,.05,2.64,.27,5.32-.19,2.03-.35,3.49-.92,5.4-1.69,1.38-.55,2.82-1.21,6.93-3.4,2.97-1.58,4.44-2.42,5.23-2.85,2.57-1.38,5.85-2.54,13.46-3.46,5.72-.69,12.14-1.47,21.57-.8,13.52,.97,23.54,4.25,30.38,6.53,2.6,.87,13.13,4.47,26.07,11.62,6.7,3.7,15.54,8.66,25.43,17.36,6.66,5.86,13.53,11.91,19.3,22.12,4.14,7.34,5.77,13.38,7.95,21.71,2.41,9.2,4.27,19.58,5.43,36.94,1.22,18.31,1.91,28.57,.55,42.11-2.87,28.66-12.67,49.93-16.73,58.03-11.91,23.8-26.55,38.47-38.13,49.88-9.84,9.7-22.18,18.77-46.87,36.9-15.32,11.26-21.12,14.9-47.34,33.7-18.68,13.4-39.83,24.38-39.83,24.38,0,0,8.51,.06,17.04-4.09,2.91-1.42,12.79-6.93,13.3-7.3,7.85-5.72,17.47-12.91,28.18-19.3,.61-.36,11.45-8.01,33.12-23.29,35.52-25.05,53.29-37.58,54.1-38.26,29.7-24.99,43.62-54.43,55.47-79.47,16.64-35.18,21.9-64.41,24.54-79.68,6.01-34.82,3.25-53.21,2.46-58.01-1.43-8.74-4.98-25.11-14.69-43.3-17.11-32.07-42.04-48.65-53.07-55.79-21.33-13.81-39.62-18.79-60.97-24.61C682,1.76,652.29,.83,626.23,.17c-31.54-.79-53.92,1.28-84.67,4.13-47.4,4.39-83.08,10.73-121.91,17.63-27.41,4.87-42,7.49-62.94,12.52Z"/>
        <path class="cls-4" d="M594.48,166.19c2.59-6.53,6.79-16.91,15.48-28.13,4.67-6.03,14.34-18.23,31.7-26.95,3.79-1.9,20.79-10.09,44.12-9.16,15.76,.63,26.89,5.11,37.96,9.57,9.79,3.95,29.13,11.96,48.14,30.36,18.43,17.83,26.92,36.09,31.87,47.02,11.4,25.14,13.7,46.59,14.96,59.31,2.26,22.89,.17,40.66-.92,48.27-1.99,13.85-4.23,28.54-12.91,45.58-4.55,8.93-10.76,20.81-23.95,31.16-2.07,1.62-11.93,9.2-27.38,13.83-21.31,6.39-39.42,3.06-47.02,1.56-50.83-9.97-81.71-58.29-93.24-76.33-7.73-12.09-21.91-34.78-26.84-67.37-3.25-21.49-1.29-39.35,.05-48.15,2.53-16.62,7-28.11,7.98-30.59Z"/>
        <path class="cls-4" d="M221.81,232.58c9.97-17.87,21.27-29.93,27.67-36.16,16.04-15.61,31.4-23.79,42.04-29.36,10.3-5.39,22.31-11.57,39.6-15.63,5.7-1.34,25.06-5.51,50.38-2.95,12.65,1.28,22.26,3.78,26.59,5,26.75,7.55,44.21,20.4,47.99,23.25,17.66,13.32,27.58,27.57,30.57,32.05,2.78,4.17,14.82,22.76,19.91,50.56,.88,4.79,4,23.22,.69,47.14-1.28,9.23-5.13,31.02-18.61,55.33-13.99,25.24-31.04,40.01-40.22,47.81-23.4,19.9-45.32,28.72-49.89,30.51-28.52,11.18-52.57,11.52-59.82,11.47-13.24-.09-31.85-.41-53.18-10.01-23.9-10.76-37.58-27.03-44.42-35.37-13.57-16.51-20.2-25.75-26.24-41.01-7.23-18.28-11.98-37.83-13.08-56.61-2.13-36.35,13.3-64,20.02-76.04Z"/>
      </g>
    </g>
  </g>
</svg>