<?xml version="1.0" encoding="UTF-8"?>
<svg id="Layer_2" data-name="Layer 2" xmlns="http://www.w3.org/2000/svg" viewBox="0 0 614 718">
  <defs>
    <style>
      .cls-1, .cls-2 {
        fill: #d5a015;
      }

      .cls-3 {
        fill: #203659;
      }

      .cls-2 {
        opacity: .25;
      }
    </style>
  </defs>
  <g id="Calque_1" data-name="Calque 1">
    <g>
      <path class="cls-3" d="M418.07,414.97c-13.9,0-25.14-4.46-31.82-7.11-8.06-3.2-28.95-13.17-48.79-36.57-18.59-21.92-25.21-42.37-34.38-70.68-10.79-33.32-16.2-50.04-12.06-71.99,3.91-20.73,14.53-39.6,31.58-56.07,.79-.77,2.06-.75,2.83,.05,.77,.79,.75,2.06-.05,2.83-16.43,15.89-26.67,34.03-30.42,53.93-3.95,20.95,1.36,37.34,11.94,70.01,9.02,27.87,15.54,48,33.62,69.32,19.26,22.71,39.43,32.35,47.21,35.43,8.59,3.41,22.97,9.12,40.91,5.89,4.57-.82,14.07-2.53,23.12-9.61,14-10.95,17.43-27.2,18.25-33.68,.14-1.1,1.14-1.87,2.24-1.73,1.1,.14,1.87,1.14,1.73,2.24-.88,6.97-4.58,24.46-19.75,36.32-9.83,7.69-19.99,9.51-24.88,10.39-3.91,.7-7.68,1-11.28,1Z"/>
      <path class="cls-3" d="M312.99,276c-.89,0-1.7-.6-1.93-1.49-3.01-11.53-3.7-23.24-2.04-34.79,1.08-7.51,3.08-21.49,13.39-34.93,8.78-11.45,19.13-16.72,26.68-20.57,17.03-8.67,31.82-9.68,39.77-10.21,11.61-.79,21.7,.56,30.86,4.13,5.78,2.25,7.68,4.06,8.88,5.67,2.88,3.88,2.47,7.56,1.48,16.45-.32,2.9-.72,6.5-1.1,10.91-.19,2.26-.32,4.04-.43,5.49-.35,4.82-.46,6.28-1.9,8.45-2.29,3.46-5.29,4.76-8.18,6.02-2.32,1.01-4.73,2.06-7.11,4.32-3.2,3.04-5.36,7.39-6.41,12.93-.21,1.08-1.25,1.8-2.34,1.59-1.08-.21-1.8-1.25-1.59-2.34,1.22-6.37,3.77-11.45,7.59-15.07,2.89-2.75,5.75-3.99,8.27-5.09,2.68-1.17,4.8-2.09,6.44-4.56,.83-1.25,.9-1.81,1.24-6.53,.11-1.46,.24-3.26,.43-5.54,.38-4.46,.78-8.09,1.11-11.01,.97-8.73,1.14-11.12-.72-13.63-.84-1.14-2.29-2.45-7.12-4.33-8.6-3.35-18.13-4.61-29.14-3.87-7.66,.52-21.93,1.48-38.23,9.79-7.61,3.88-17.09,8.7-25.32,19.44-9.67,12.62-11.58,25.92-12.61,33.07-1.58,11.02-.92,22.2,1.96,33.21,.28,1.07-.36,2.16-1.43,2.44-.17,.04-.34,.07-.51,.07Z"/>
      <path class="cls-3" d="M447.15,321.64c-1.26,0-2.54-.17-3.81-.5-4.32-1.15-8-4.14-10.12-8.22-.51-.98-.13-2.19,.85-2.7,.98-.51,2.19-.12,2.7,.85,1.6,3.08,4.36,5.33,7.59,6.19,2.73,.73,5.48,.38,7.55-.95,4.09-2.64,5.14-8.83,3.3-12.41-.68-1.32-1.54-1.79-2.85-2.5-1.49-.81-3.33-1.81-5.02-4.28-2.9-4.25-2.67-8.85-2.35-15.23,.24-4.84,.95-7.55,1.52-9.72,.56-2.13,.9-3.42,.5-5.85-.21-1.27-1.53-7.78-7.16-11.68-6.1-4.22-13.47-2.58-17.43-1.69-9.67,2.16-15.97,8.63-18.87,12.29-.69,.87-1.94,1.01-2.81,.33-.87-.69-1.01-1.94-.33-2.81,3.23-4.08,10.26-11.28,21.13-13.71,4.23-.94,13.04-2.91,20.57,2.31,6.96,4.82,8.58,12.77,8.84,14.32,.54,3.27,.02,5.24-.58,7.52-.52,1.99-1.17,4.48-1.4,8.91-.3,6.01-.49,9.64,1.65,12.77,1.14,1.67,2.29,2.3,3.63,3.02,1.53,.83,3.26,1.77,4.5,4.19,2.65,5.17,1.21,13.79-4.7,17.59-2.01,1.29-4.42,1.96-6.93,1.96Z"/>
      <path class="cls-3" d="M378,261c-.6,0-1.2-.27-1.59-.79-.67-.88-.5-2.13,.38-2.8,6.61-5.03,12.56-10.65,17.68-16.7,3.09-3.65,5.06-6.47,8.63-11.59,1.86-2.66,4.16-5.96,7.27-10.29,3.62-5.05,7.33-10.11,11.03-15.03,.66-.88,1.92-1.06,2.8-.4,.88,.66,1.06,1.92,.4,2.8-3.68,4.9-7.37,9.94-10.97,14.97-3.09,4.31-5.39,7.6-7.24,10.25-3.64,5.21-5.65,8.08-8.86,11.88-5.31,6.27-11.47,12.09-18.32,17.3-.36,.28-.79,.41-1.21,.41Z"/>
      <path class="cls-3" d="M381.31,336.15c-4.82,0-8.74-2.93-9.56-3.59-2.7-2.17-5.9-6.45-6.74-20.44-.55-9.04,.14-18.3,2.04-27.52,.22-1.08,1.28-1.78,2.36-1.56,1.08,.22,1.78,1.28,1.56,2.36-1.83,8.88-2.49,17.78-1.96,26.48,.85,14.02,4.05,16.59,5.26,17.56,.43,.34,4.29,3.33,8.39,2.59,1.72-.31,2.71-1.12,4.2-2.34,1.28-1.05,2.88-2.36,5.3-3.5,3.28-1.55,6.96-2.29,10.9-2.19,1.1,.03,1.98,.94,1.95,2.05-.03,1.1-.97,1.98-2.05,1.95-3.29-.08-6.38,.53-9.1,1.81-1.98,.93-3.25,1.97-4.48,2.98-1.61,1.32-3.28,2.68-6.02,3.18-.69,.13-1.38,.18-2.04,.18Z"/>
      <path class="cls-3" d="M44.99,544c-.35,0-.71-.09-1.04-.29-.94-.57-1.24-1.8-.67-2.75,24.33-40,37.35-82.07,38.71-125.02,1.16-36.75-6.49-64.07-23.92-122.36-11.89-39.76-21.57-62.65-29.35-81.05-7.84-18.53-14.03-33.17-19.68-57.07C-2.3,107.51-2.98,55.75,7.03,1.64c.2-1.09,1.24-1.81,2.33-1.6,1.09,.2,1.8,1.24,1.6,2.33C1.06,55.93,1.72,107.13,12.94,154.54c5.58,23.57,11.71,38.07,19.47,56.43,7.82,18.48,17.55,41.49,29.5,81.46,16.32,54.6,25.31,84.68,24.08,123.64-1.38,43.65-14.6,86.38-39.29,126.98-.38,.62-1.04,.96-1.71,.96Z"/>
      <path class="cls-3" d="M504,718c-.08,0-.16,0-.24-.01-1.1-.13-1.88-1.13-1.75-2.23,1.85-15.36,5.95-30.03,12.17-43.59,10.07-21.97,23.53-36.69,34.34-48.52,2.27-2.48,4.88-5.47,7.42-8.36,4.64-5.3,9.02-10.31,11.71-12.76,.82-.75,2.08-.69,2.83,.13,.75,.82,.69,2.08-.13,2.83-2.52,2.31-7.04,7.46-11.4,12.45-2.54,2.91-5.18,5.91-7.47,8.43-10.62,11.62-23.85,26.09-33.66,47.48-6.05,13.19-10.03,27.46-11.83,42.41-.12,1.02-.99,1.76-1.98,1.76Z"/>
      <path class="cls-3" d="M612,615c-.12,0-.25-.01-.38-.04-1.11-.21-2.36-.44-3.75-.7-21.42-3.95-71.59-13.2-102.15-38.73-.85-.71-.96-1.97-.25-2.82s1.97-.96,2.82-.25c29.75,24.86,79.2,33.98,100.32,37.87,1.4,.26,2.66,.49,3.78,.7,1.08,.21,1.8,1.25,1.59,2.34-.18,.96-1.02,1.63-1.96,1.63Z"/>
      <path class="cls-1" d="M292.98,285.64c-1.17-2.72-4.24-4.1-7.04-3.12-3.41,1.2-7.69,3.06-9.95,5.48-4.55,4.87-5.46,10.6-6,14-1.34,8.43,.94,15.04,3,21,1.55,4.51,3.97,11.3,10,18,3.85,4.27,7.77,8.64,14,10,4.78,1.04,11.84-1.99,16.43-4.39,2.62-1.37,3.75-4.52,2.58-7.24l-23.03-53.73Z"/>
      <path class="cls-1" d="M372.16,276.93l-2,14.64c-.31,2.25,1.9,4.03,4.03,3.24,1.65-.61,3.13-1.17,3.29-1.31,2.45-2.1,3.42-4.52,4-6,.32-.82,1.56-9.15-2-12-1.1-.88-2.8-1.14-4.24-1.18-1.55-.04-2.88,1.08-3.09,2.61Z"/>
      <path class="cls-1" d="M294,304s7.42-6.82,20-12c6.65-2.74,16.34-6.97,28-13,0,0,4.9-2.22,24-9,.59-.21,2.03-.71,4-1,.31-.05,3.94-.56,6,0,4.42,1.2,6,13,6,13,0,0-8.51,.99-20,4-1.76,.46-3,.89-14,6-20.42,9.49-29.18,13.09-33,15-8,4-13,10-13,10l-8-13Z"/>
      <path class="cls-1" d="M376.32,500.44c-16.02,0-34.73-3.6-50.27-17.03-23.58-20.38-30.66-55.84-25.46-80.34,1.04-4.92,2.45-8.94,3.82-12.83,2.38-6.8,4.44-12.66,4.09-22.07-.42-11.35-4.22-22.7-11.29-33.74l7.58-4.86c7.95,12.41,12.23,25.29,12.71,38.26,.41,11.11-2.13,18.36-4.59,25.38-1.27,3.62-2.58,7.37-3.51,11.72-4.65,21.91,1.6,53.56,22.54,71.66,25.48,22.02,62.05,13.74,74.06,11.02,23.05-5.22,42.25-16.45,55.53-32.48,22.07-26.64,21.59-57.98,18.97-106.89-1.4-26.15-4.97-44.57-23.88-123.19-7.23-30.07-14.63-60.34-21.99-89.97l8.73-2.17c7.36,29.65,14.77,59.94,22.01,90.03,19.08,79.3,22.68,97.97,24.12,124.81,2.36,44.22,4.4,82.41-21.03,113.11-14.55,17.57-35.46,29.85-60.47,35.52-6.07,1.37-17.87,4.05-31.67,4.05Z"/>
      <path class="cls-3" d="M612,0H9S.41,54.9,2,88c.97,20.14,4.53,57.76,20,101,7.27,20.31,7.72,15.48,19,45,6.5,17.02,17.27,46.08,27,85l11,44s63.92,36,90,36c18,0,45.1-30.46,61-54,4.37-6.47,10.71-16.64,42-99,13.5-35.53,18.14-48.95,32-66,20.3-24.97,41.07-33.97,46-36,6.42-2.65,21.8-8.24,42-8,21.08,.25,36.26,6.72,51,13,8.46,3.61,22.71,9.8,38,22,22.29,17.8,34,36,34,36l70.9-10.24c11.21-1.62,20.44-9.67,23.53-20.57,.75-2.62,1.6-5.51,2.57-8.62V0Z"/>
      <path class="cls-2" d="M612,0h-36.08c-9.88,2.23-19.42,4.51-28.6,6.82-24.16,6.08-47.15,11.93-77.26,22.77-22.73,8.18-39.29,14.22-60.08,25.77-4.66,2.59-20.48,13.22-51.92,34.39-37.64,25.33-41.94,28.48-52.68,32.94-11.31,4.7-21.88,11.38-33.66,14.77-6.18,1.77-13.4,3.35-18.79,9.79-2.91,3.47-7.21,10.65-4.85,15.39,3.24,6.5,17.31,4.97,35.05,3.8,42.24-2.78,30.38,1.43,59.75-1.71,23.43-2.5,33.98-5.5,82.47-16.3,64.8-14.43,59.32-12.04,88.26-19.31,12.13-3.05,2.23-.74,80.91-22.83,6.38-1.79,12.13-3.41,17.48-4.94V0Z"/>
    </g>
  </g>
</svg>