<?xml version="1.0" encoding="UTF-8"?>
<svg id="Layer_2" data-name="Layer 2" xmlns="http://www.w3.org/2000/svg" viewBox="0 0 740 710.53">
  <defs>
    <style>
      .cls-1, .cls-2 {
        fill: #d5a015;
      }

      .cls-3 {
        fill: #203659;
      }

      .cls-4 {
        fill: #fff;
        opacity: .5;
      }

      .cls-2 {
        opacity: .25;
      }
    </style>
  </defs>
  <g id="Calque_1" data-name="Calque 1">
    <g>
      <path class="cls-3" d="M127.06,514.96c-2.61,8.6-10.53,14.48-19.52,14.48h-9.53c-18.89,0-22-1-22-1,0,0-7-27-21-54-10.79-20.8-13.26-21.19-26-47-15.93-32.28-20.52-60.83-23-77-3.12-20.41-7.77-52.74,1-93,7.34-33.7,20.62-57.08,31-75,20.34-35.14,42.39-57.43,55-70,34.85-34.75,67.77-53.81,77-59,37.35-20.98,68.63-29.24,98-37,26.55-7.01,50.7-13.22,84-14,37.62-.88,65.08,5.69,74,8,21.57,5.58,37.02,12.65,42,15,10.13,4.79,17.76,9.52,33,19,15.84,9.85,24,18,24,18,0,0-7.31,14.38-73,38-52.42,18.85-62.02,18.64-84,33-20.08,13.12-42.23,27.58-46,51-2.23,13.84-5,36-5,36,0,0-9.12,6.5-24,17-14.15,9.99-23.37,19.89-30,27-7.65,8.21-5.71,7.42-25,31-8.52,10.42-7.3,8.61-20,24-14.17,17.17-15.35,19-21,25-2.65,2.81-10.2,10.71-21,20-10.35,8.91-12.8,9.72-19,15-7.87,6.7-25.44,21.68-31,45-3.87,16.23-.51,30.57,1,37,3.1,13.24,1.78,13.6,4,28,1.03,6.67-1.37,17.02-3.94,25.52Z"/>
      <path class="cls-3" d="M243,368.44c.1,4.86,9.73,5.24,19,18,4.81,6.62,7,11,7,11,0,0,31-3,45-16,2.1-1.95,1.72-3.77,5-30,2.79-22.31,1-27,1-27,0,0-13.95,10.44-36,23-22.91,13.05-41.14,14.3-41,21Z"/>
      <path class="cls-3" d="M72,600.44c-.17,0-.35-.02-.52-.07-1.07-.29-1.7-1.39-1.41-2.45,6.4-23.67,7.73-46.93,3.96-69.14-4.88-28.77-16.95-47.92-28.62-66.44-3.05-4.85-6.21-9.86-9.13-14.89C35.91,446.82,.23,384.42,0,304.44c-.14-47.24,15.59-94.31,46.74-139.91,24.68-36.12,51.73-60.44,61.92-69.59C171.9,38.13,238.91,21.57,267.52,14.5c43.98-10.87,110.44-27.29,185.21,2.08,37.6,14.77,70.83,38.51,98.78,70.55,.73,.83,.64,2.1-.19,2.82-.83,.73-2.1,.64-2.82-.19-27.51-31.55-60.22-54.92-97.22-69.45-73.59-28.9-139.3-12.67-182.79-1.92-28.33,7-94.65,23.39-157.14,79.55C40.91,161.22,3.79,232.62,4,304.43c.23,78.92,35.38,140.39,35.73,141,2.89,4.97,5.88,9.73,9.06,14.77,11.88,18.85,24.17,38.34,29.18,67.9,3.87,22.79,2.51,46.63-4.04,70.86-.24,.89-1.05,1.48-1.93,1.48Z"/>
      <path class="cls-3" d="M633,536.44c-.91,0-1.73-.62-1.95-1.55-.25-1.08,.42-2.15,1.49-2.4,11.32-2.65,22.3-6.31,32.65-10.88,10.8-4.78,18.32-9.34,22.36-13.55,.33-.34,1.9-2.4,8.54-14.69,1.73-3.2,1.99-7,.71-10.41l-16.79-44.76c-3.05-8.14,.56-17.1,8.41-20.82,6.12-2.91,13.05-6.5,20.6-10.68,11.38-6.3,26.96-14.93,26.97-25.25,0-1.72-2.41-6.04-5.75-12.02-5.24-9.4-9.03-16.18-15.82-24.73-5.04-6.34-10.68-12.32-16.77-17.75-.82-.74-.9-2-.16-2.82,.74-.82,2-.9,2.82-.16,6.26,5.59,12.06,11.73,17.23,18.25,7,8.81,10.84,15.71,16.17,25.26,4.46,7.99,6.26,11.33,6.26,13.99-.02,12.67-16.79,21.96-29.03,28.75-7.62,4.22-14.62,7.85-20.82,10.8-5.96,2.83-8.7,9.62-6.38,15.81l16.79,44.76c1.69,4.5,1.34,9.5-.94,13.72-7.42,13.72-8.74,15.1-9.17,15.55-4.41,4.6-12.36,9.46-23.64,14.45-10.57,4.68-21.79,8.42-33.35,11.12-.15,.04-.31,.05-.46,.05Z"/>
      <path class="cls-3" d="M546.63,706.87c-29.71,0-62.28-3.54-95.04-10.48-1.08-.23-1.77-1.29-1.54-2.37,.23-1.08,1.29-1.77,2.37-1.54,107.9,22.83,187.3,4.44,196.73-18.8,10.86-26.76,6.95-44.62,6.9-44.8-.12-.51-.26-1.08-.41-1.71-.83-3.37-2.08-8.46-2.63-15.59-.72-9.29-1.46-18.9,3.26-27.15,1.95-3.42,3.7-4.51,7.92-7.16,2.8-1.76,6.64-4.17,12.65-8.47,17.34-12.42,19.45-16.91,20.2-20.76,.43-2.22,.63-5.75-.91-9.93-2.83-7.68-9.8-11-11.87-11.84-1.02-.41-1.52-1.58-1.11-2.6,.41-1.02,1.58-1.52,2.6-1.11,2.46,.99,10.73,4.94,14.13,14.16,1.86,5.05,1.62,9.35,1.09,12.07-1.12,5.75-4.93,11.16-21.8,23.24-6.11,4.37-10.17,6.92-12.85,8.61-4.14,2.6-5.12,3.21-6.58,5.76-4.11,7.18-3.44,15.76-2.74,24.85,.53,6.81,1.73,11.71,2.53,14.95,.16,.65,.3,1.24,.43,1.76,.18,.77,4.24,19.28-7.1,47.2-5.47,13.47-29.61,24.34-64.59,29.06-12.96,1.75-26.95,2.62-41.64,2.62Z"/>
      <path class="cls-3" d="M262.54,569.88c-15.8,0-29.12-6.57-39.42-11.65-11.25-5.55-23.35-16.84-47.48-39.33-24.57-22.91-30.39-30.58-34.49-40.72-1.97-4.86-7.19-17.78-5.13-34.99,1.8-14.99,8.27-26.2,13.39-32.97,.67-.88,1.92-1.06,2.8-.39,.88,.67,1.06,1.92,.39,2.8-4.82,6.37-10.92,16.93-12.61,31.03-1.94,16.18,3.01,28.41,4.87,33.01,3.55,8.78,8.01,15.51,33.51,39.29,23.84,22.23,35.8,33.38,46.52,38.67,12.46,6.15,29.52,14.56,49.66,9.85,14.33-3.36,25.67-11.01,32.77-22.13,7.41-11.59,8-23.66,7.69-29.82-.06-1.1,.79-2.04,1.9-2.1,1.09-.05,2.04,.79,2.1,1.9,.33,6.64-.3,19.65-8.31,32.18-7.68,12.02-19.86,20.27-35.23,23.87-4.47,1.05-8.78,1.5-12.92,1.5Z"/>
      <path class="cls-3" d="M189,503.44c-.47,0-.94-.17-1.33-.5-4.98-4.41-9.75-9.18-14.17-14.17-11.23-12.68-16.87-19.05-18.48-29.01-2.03-12.63,3.76-22.91,6.23-27.3,7.08-12.55,17.53-18.32,23.78-21.77,11.31-6.25,24.45-9.44,38-9.25,1.1,.02,1.99,.92,1.97,2.03-.02,1.09-.91,1.97-2,1.97,0,0-.02,0-.03,0-12.83-.19-25.3,2.84-36,8.75-5.88,3.24-15.71,8.67-22.22,20.23-2.27,4.03-7.58,13.45-5.77,24.7,1.42,8.82,6.8,14.89,17.52,26.99,4.32,4.88,8.97,9.53,13.83,13.83,.83,.73,.9,2,.17,2.82-.39,.45-.95,.67-1.5,.67Z"/>
      <path class="cls-3" d="M262.1,525.92c-4.1,0-8.66-1.18-11.92-2.66-9.12-4.14-13.35-12.51-15.05-17.13-.38-1.04,.15-2.19,1.18-2.57,1.04-.38,2.19,.15,2.57,1.18,1.49,4.03,5.15,11.33,12.95,14.87,6.14,2.79,13.83,3.12,15.53,.68,.54-.78,.33-1.82-.12-3.75-.54-2.3-1.21-5.15-.16-8.68,1.19-4,4.19-7.42,8.91-10.16,.95-.55,2.18-.23,2.73,.73,.55,.96,.23,2.18-.73,2.73-3.81,2.21-6.2,4.85-7.09,7.84-.75,2.51-.26,4.6,.22,6.63,.54,2.29,1.09,4.66-.49,6.94-1.68,2.42-4.94,3.34-8.55,3.34Z"/>
      <path class="cls-3" d="M246,467.44c-.93,0-1.76-.65-1.96-1.59-1.38-6.6-1.01-12.7,1.09-18.13,1.46-3.77,3.46-6.44,5.08-8.59,2.07-2.76,3.14-4.3,2.81-6.38-.27-1.7-1.31-2.64-3.86-4.79-1.25-1.05-2.8-2.36-4.56-4.1-4.51-4.44-8.34-9.66-11.37-15.5-.51-.98-.13-2.19,.85-2.7,.98-.51,2.19-.13,2.7,.85,2.84,5.47,6.42,10.35,10.63,14.5,1.66,1.63,3.08,2.83,4.33,3.89,2.74,2.31,4.72,3.98,5.24,7.23,.61,3.84-1.42,6.54-3.56,9.4-1.54,2.05-3.29,4.38-4.55,7.63-1.82,4.7-2.12,10.04-.91,15.87,.23,1.08-.47,2.14-1.55,2.37-.14,.03-.28,.04-.41,.04Z"/>
      <path class="cls-3" d="M230,463.44c-.31,0-.62-.07-.91-.22-.98-.51-1.37-1.71-.86-2.69,2.71-5.27,5.39-10.64,7.98-15.96,2.71-5.58,5.39-11.29,7.98-16.96,.46-1.01,1.65-1.45,2.65-.99,1.01,.46,1.45,1.64,.99,2.65-2.6,5.7-5.3,11.43-8.02,17.04-2.6,5.35-5.3,10.75-8.02,16.04-.35,.69-1.05,1.09-1.78,1.09Z"/>
      <path class="cls-3" d="M291.52,495.57c-.62,0-1.24-.05-1.86-.16-1.09-.19-1.82-1.22-1.63-2.31s1.22-1.82,2.31-1.63c2.4,.41,4.77-.45,6.04-2.2,1.93-2.68,.22-6.21-.14-6.89-.98-1.85-2.56-2.84-3.19-3.18-1.63-.88-2.92-.84-4.54-.77-1.85,.07-3.95,.15-6.47-1.23-2.78-1.53-4.21-3.84-4.74-4.71-1.47-2.39-1.62-4.32-1.78-6.54-.09-1.16-.19-2.48-.48-4.16-.71-4.04-1.45-8.22-3.98-9.59-1.91-1.03-4.36-.27-5.32,.11-3.91,1.52-6.55,6.3-6.73,12.2-.03,1.1-.99,1.97-2.06,1.94-1.1-.03-1.97-.96-1.94-2.06,.23-7.5,3.87-13.71,9.28-15.8,1.84-.72,5.43-1.66,8.68,.11,4.23,2.29,5.18,7.67,6.02,12.41,.33,1.87,.44,3.36,.53,4.55,.15,2.05,.24,3.18,1.2,4.75,.42,.68,1.4,2.28,3.26,3.29,1.55,.85,2.8,.8,4.39,.74,1.78-.07,4-.15,6.6,1.25,1.18,.64,3.37,2.11,4.81,4.82,1.61,3.03,2.42,7.55-.14,11.11-1.81,2.51-4.86,3.96-8.1,3.96Z"/>
      <path class="cls-1" d="M140.95,405.49c-3.1-3.2-1.45-10.06,0-13.57,2.7-6.53,8.1-9.62,12.61-12.61,8.59-5.69,15.38-13.73,23.27-20.36,7.48-6.29,10.14-9.91,33.94-39.76,19.88-24.93,29.88-37.47,32.97-40.72,13.76-14.53,25.53-23.56,41.69-35.88,21.43-16.32,38.39-26.83,56.24-37.82,22.36-13.77,47.87-28.26,76.6-42.66,6.41-3.21,33.02-16.46,68.84-31.03,28.56-11.61,39.64-14.57,50.42-16.48,10.3-1.83,22.71-2.19,47.51-2.91,28.94-.84,36.07,.4,43.63,3.88,4.68,2.15,16.03,7.56,23.27,20.36,1.11,1.95,7.08,12.86,5.82,27.15-.55,6.2-2.25,10.65-4.85,17.45-3.38,8.85-5.07,13.28-7.76,13.57-5.12,.56-6.11-13.65-19.39-24.24-2.42-1.93-9.88-7.43-20.36-8.73-8.84-1.09-15.74,1.31-20.36,2.91-40.43,13.96-33.35,9.67-46.54,15.51-13.06,5.79-37.76,16.94-64,38.79-10.99,9.15-9.02,9.16-22.3,20.36-15.46,13.04-27.14,20.62-47.51,33.94-57.54,37.63-50.18,33.27-59.15,38.79-21.38,13.15-17.58,9.85-65.94,37.82-36.18,20.93-43.89,26-62.06,33.94-22.78,9.95-14.32,3.57-47.51,16.48-13.94,5.42-24.85,10.21-29.09,5.82Z"/>
      <path class="cls-4" d="M288.33,307.56c-.73,0-1.42-.41-1.75-1.11-.46-.97-.05-2.12,.92-2.58,15.76-7.46,31.35-15.91,46.36-25.11,22.81-13.98,39.91-27.09,51.22-35.76,9.41-7.21,14.44-11.43,19.77-15.89,5.66-4.74,12.08-10.12,24.82-19.98,15.64-12.1,24.26-18.76,36.96-27.23,10.44-6.96,26.2-17.47,48.72-28.25,13.59-6.51,29.21-11.82,60.33-22.39,.45-.15,11.28-3.78,36.19-7.84,4.6-.75,12.31-2,21.3,1.05,4.01,1.36,7.79,3.42,11.24,6.13,.84,.66,.99,1.88,.33,2.72-.66,.84-1.88,.99-2.72,.33-3.1-2.43-6.5-4.29-10.09-5.51-8.07-2.74-15.18-1.58-19.43-.89-24.53,3.99-35.46,7.64-35.57,7.68-30.97,10.52-46.52,15.8-59.9,22.21-22.27,10.67-37.9,21.09-48.24,27.98-12.59,8.39-21.16,15.02-36.74,27.07-12.68,9.81-19.07,15.16-24.71,19.88-5.36,4.49-10.43,8.74-19.9,16-11.38,8.72-28.57,21.9-51.56,35.99-15.12,9.27-30.84,17.79-46.73,25.31-.27,.13-.55,.19-.83,.19Z"/>
      <path class="cls-1" d="M620.69,374.78c-6.3-.47-11.02-2.68-12.29-3.34-3.68-1.89-8.82-5.68-16.01-18.32-5.27-9.26-9.59-19.8-12.19-29.68-6.58-25.06-10.54-40.19-11.54-62.64-.98-22.1,1.35-39.73,7.13-53.9,2.5-6.12,6.03-13.1,13.31-18.43,2.01-1.47,12.63-8.7,24.75-6.9h0c18.5,2.76,27.78,24.44,34.56,40.28,6.4,14.96,8.1,26.52,10.92,45.66,1.99,13.51,3.99,33.5,2.23,52.02-1.87,19.75-6.09,29.1-9.97,35.64-3.62,6.1-8.58,14.45-18.87,18.07-4.29,1.51-8.41,1.82-12.02,1.55Zm-9.2-187.44c-9.43-.7-17.87,5.25-18.85,5.97-4.89,3.58-8.16,8.17-11.3,15.85-5.44,13.35-7.63,30.15-6.69,51.37,.97,21.82,4.66,35.87,11.35,61.39,2.46,9.39,6.58,19.42,11.6,28.24,7.23,12.71,11.81,15.07,13.54,15.95,1.61,.83,10.12,4.79,19.57,1.46,8.24-2.9,12.38-9.87,15.7-15.47,3.54-5.97,7.4-14.57,9.16-33.14,1.7-17.93-.26-37.4-2.2-50.58-2.74-18.66-4.4-29.92-10.5-44.17-6.22-14.53-14.74-34.44-29.93-36.7h0c-.49-.07-.98-.13-1.47-.16Z"/>
      <path class="cls-2" d="M330.79,710.53l-5.59-2.19c7.82-19.96,12.13-40.48,12.79-61,.84-25.72-4.31-42.95-14.56-77.27l-2.32-7.78c-13.33-44.82-25.92-87.16-34.05-124.21-6.98-31.83-11.72-64.94-14.06-98.43l5.98-.42c2.33,33.2,7.02,66.03,13.94,97.57,8.08,36.84,20.65,79.08,33.95,123.79l2.32,7.77c10.44,34.94,15.67,52.48,14.8,79.18-.69,21.2-5.13,42.4-13.21,63Z"/>
    </g>
  </g>
</svg>