<?xml version="1.0" encoding="UTF-8"?>
<svg id="Layer_2" data-name="Layer 2" xmlns="http://www.w3.org/2000/svg" viewBox="0 0 628.06 1430.65">
  <defs>
    <style>
      .cls-1 {
        fill: #91d5c6;
      }

      .cls-2 {
        fill: #d5a015;
      }

      .cls-3 {
        fill: #d8632a;
      }

      .cls-4 {
        fill: #17243b;
      }

      .cls-5 {
        fill: #1f7765;
      }

      .cls-6 {
        fill: #384f8e;
      }
    </style>
  </defs>
  <g id="Calque_1" data-name="Calque 1">
    <g>
      <path class="cls-4" d="M95.92,492.36l42.11-25.49c2.26-1.37,5.2-.61,6.52,1.67,8.79,15.21,17.77,27.38,37.06,27.38s32.87-7.89,32.87-38.57V253.46c0-2.6,2.11-4.72,4.72-4.72h51.93c2.6,0,4.72,2.11,4.72,4.72v204.78c0,63.54-37.25,92.47-91.59,92.47-46.94,0-75.04-23.24-90.06-52.1-1.15-2.22-.41-4.95,1.73-6.24Z"/>
      <path class="cls-4" d="M356.85,248.74h55.38c1.86,0,3.55,1.09,4.31,2.79l50.03,112.03c8.15,18.18,16.53,44.89,20.64,58.62,.76,2.55,4.38,2.54,5.12-.01,3.99-13.65,12.12-40.15,20.26-58.61l48.73-111.99c.75-1.72,2.45-2.83,4.32-2.83h49.33c3.4,0,5.68,3.48,4.32,6.59l-126.51,291.22c-.75,1.72-2.45,2.84-4.32,2.84h0c-1.85,0-3.53-1.09-4.3-2.77L352.55,255.4c-1.41-3.12,.87-6.66,4.3-6.66Z"/>
      <path class="cls-2" d="M585.46,203.44c-13.44-22.89-29.88-44.13-48.88-63.12-.34-.34-.71-.65-1.11-.92-.84-.58-5.28-3.23-10.01,.99-.33,.3-.8,.74-1.39,1.3-1,.96-2.43,2.36-4.27,4.18-3.05,3.02-7.26,7.25-12.53,12.56-8.95,9.03-17.97,18.21-18.06,18.3-2.98,3.03-2.96,7.9,.05,10.91,15.74,15.74,29.23,33.41,40.09,52.51,20.79,36.57,31.79,78.41,31.79,121.02,0,65.55-25.53,127.17-71.88,173.53-11.49,11.49-24.1,21.85-37.46,30.8-3.53,2.36-4.5,7.12-2.18,10.68,27.15,41.56,28.83,43.33,29.38,43.91,1.44,1.52,3.44,2.39,5.53,2.42,.04,0,.07,0,.11,0,2.58,0,4.04-1.08,6.05-2.57,.94-.69,2.29-1.7,3.94-2.96,2.33-1.77,7.08-5.4,12.73-9.87,9.04-7.16,21.45-17.32,29.21-25.08,58.99-58.99,91.48-137.42,91.48-220.84,0-55.7-14.73-110.24-42.6-157.72Z"/>
      <path class="cls-5" d="M323.32,623.22c0-1.03-.4-2.02-1.13-2.75-.73-.73-1.72-1.14-2.75-1.14-71.61,0-138.93-27.89-189.57-78.52-31.77-31.77-55.17-71.06-67.67-113.63-.14-.55-.41-1.08-.79-1.53-1.5-1.78-3.41-1.5-6.05-1.11-1.49,.22-3.63,.58-6.37,1.06-4.57,.81-10.89,1.99-18.79,3.51-13.43,2.58-26.96,5.29-27.1,5.31-1.05,.21-1.97,.85-2.54,1.76-.56,.91-.72,2.02-.44,3.06,15.03,54.86,44.49,105.38,85.21,146.09,62.53,62.53,145.67,96.97,234.11,96.97,1.57,0,2.98-.94,3.58-2.39,.27-.66,.35-1.38,.25-2.06-.17-3.09-.07-34.19,.04-54.64Z"/>
      <path class="cls-1" d="M304.46,505.3c-.93-1.17-2.29-1.9-3.78-2.05-43.29-4.09-82.49-28.73-104.87-65.93-38.21-63.53-19.57-145.06,42.42-185.6,.95-.62,1.91-1.23,2.88-1.83,2.52-1.56,3.34-4.84,1.86-7.41l-24.17-41.86c-.82-1.42-2.22-2.39-3.83-2.67-1.5-.25-3.03,.12-4.24,1.04-.18,.08-.49,.19-.71,.27-.84,.3-1.88,.68-2.92,1.34-42.53,27.22-72.69,69.25-84.91,118.34-12.72,51.09-4.78,104.08,22.36,149.2,27.13,45.12,70.22,76.97,121.31,89.69,7.82,1.95,21.59,3.96,27.15,4.74,.25,.04,.51,.05,.76,.05,1.19,0,2.36-.39,3.32-1.12,1.16-.89,1.93-2.2,2.12-3.65l6.4-48.43c.2-1.48-.22-2.97-1.15-4.14Z"/>
      <path class="cls-3" d="M608.03,645.02l-36.36-36.36c-3.02-3.02-7.9-3.03-10.93-.03-8.87,8.79-18.24,17.14-27.84,24.83-62.05,49.68-137.14,75.94-217.16,75.94-20.61,0-41.25-1.8-61.35-5.35-2.06-.36-4.18,.12-5.88,1.34-1.7,1.22-2.83,3.08-3.13,5.15-3.25,21.9-7.06,46.64-7.79,49.75-.61,2.06-.34,4.29,.76,6.15,1.16,1.95,3.11,3.3,5.34,3.69,23.61,4.11,47.85,6.19,72.05,6.19,46.76,0,92.59-7.65,136.2-22.75,43.44-15.04,83.89-37.18,120.22-65.82,12.41-9.78,24.47-20.46,35.85-31.75,1.46-1.45,2.29-3.43,2.29-5.49,0-2.06-.81-4.04-2.27-5.5Z"/>
      <path class="cls-4" d="M614.96,248.74h-49.33c-1.88,0-3.57,1.11-4.32,2.83l-48.73,111.99c-8.13,18.46-16.27,44.96-20.26,58.61-.75,2.56-4.36,2.56-5.12,.01-4.11-13.73-12.48-40.44-20.64-58.62l-50.03-112.03c-.76-1.7-2.44-2.79-4.31-2.79h-55.38c-3.42,0-5.71,3.54-4.3,6.66l78.02,172.66h113.68l75.03-172.72c1.35-3.11-.93-6.59-4.32-6.59Z"/>
      <path class="cls-4" d="M214.49,332.14v125.21c0,30.68-12.71,38.57-32.87,38.57s-28.27-12.17-37.06-27.38c-1.32-2.28-4.26-3.04-6.52-1.67l-1.35,.82v73.02c13.1,6.29,28.83,9.99,47.57,9.99,54.34,0,91.59-28.93,91.59-92.47v-126.09h-61.36Z"/>
      <path class="cls-6" d="M540.25,79.05c-.1-.07-.21-.13-.32-.19-31.71-25.41-67.1-45.09-105.19-58.49C396.31,6.85,355.89,0,314.6,0c-.86,0-1.72,.01-2.58,.02h-1.17c-2.83,.04-5.11,2.35-5.11,5.18V56.61c0,1.38,.55,2.7,1.54,3.68,.97,.96,2.27,1.49,3.63,1.49,.02,0,.04,0,.06,0,1.21-.01,2.42-.02,3.64-.02,70.17,0,135.75,23.4,189.65,67.68,.93,.76,2.09,1.17,3.28,1.17,.24,0,.49-.02,.73-.05,1.43-.2,2.72-1,3.53-2.2,12.05-17.61,25.74-37.28,28.66-40.94,.86-.67,1.51-1.61,1.81-2.7,.59-2.14-.22-4.42-2.01-5.68Z"/>
      <polygon class="cls-4" points="71.81 1021.45 71.81 1079.12 103.58 1079.12 103.58 1084.93 66.17 1084.93 66.17 1021.45 71.81 1021.45"/>
      <path class="cls-4" d="M153.12,1079.83c2.22,0,4.26-.39,6.11-1.16,1.85-.77,3.46-1.88,4.83-3.31,1.37-1.43,2.43-3.18,3.2-5.23,.77-2.06,1.15-4.37,1.15-6.93v-41.75h5.64v42.02c0,3.4-.53,6.47-1.58,9.21-1.06,2.74-2.52,5.08-4.4,7.02-1.88,1.94-4.1,3.41-6.66,4.43-2.56,1.01-5.32,1.52-8.28,1.52s-5.71-.51-8.24-1.52c-2.53-1.01-4.74-2.49-6.62-4.43-1.88-1.93-3.34-4.28-4.4-7.02-1.05-2.74-1.58-5.81-1.58-9.21v-42.02h5.64v41.75c0,2.56,.38,4.87,1.15,6.93,.77,2.05,1.82,3.8,3.16,5.23,1.34,1.43,2.93,2.53,4.78,3.31,1.85,.78,3.89,1.16,6.11,1.16"/>
      <path class="cls-4" d="M258.61,1021.36l-.17,66.43-45.18-53.55c0,8.4,.01,16.85,.04,25.35,.03,8.49,.04,16.94,.04,25.35h-5.64l.26-66.34,45.18,54v-51.23h5.47Z"/>
      <polygon class="cls-4" points="330.1 1021.45 330.1 1027.26 298.24 1027.26 298.24 1057.12 326.86 1057.12 326.86 1062.93 298.24 1062.93 298.24 1079.12 331.21 1079.12 331.21 1084.93 292.61 1084.93 292.61 1021.45 330.1 1021.45"/>
      <polygon class="cls-4" points="397.07 1021.45 397.07 1027.26 379.9 1027.26 379.9 1084.93 374.26 1084.93 374.26 1027.26 357.35 1027.26 357.35 1021.45 397.07 1021.45"/>
      <polygon class="cls-4" points="461.38 1021.45 461.38 1027.26 444.22 1027.26 444.22 1084.93 438.58 1084.93 438.58 1027.26 421.67 1027.26 421.67 1021.45 461.38 1021.45"/>
      <polygon class="cls-4" points="528.09 1021.45 528.09 1027.26 496.23 1027.26 496.23 1057.12 524.85 1057.12 524.85 1062.93 496.23 1062.93 496.23 1079.12 529.2 1079.12 529.2 1084.93 490.6 1084.93 490.6 1021.45 528.09 1021.45"/>
      <path class="cls-4" d="M576.18,1026.54c-3.59,0-6.45,.92-8.58,2.77-2.13,1.85-3.2,4.2-3.2,7.06,.05,1.55,.43,2.89,1.11,4.02,.68,1.13,1.61,2.15,2.77,3.04,1.17,.89,2.55,1.73,4.14,2.5,1.59,.78,3.38,1.58,5.38,2.42,2.33,.95,4.47,1.94,6.41,2.95,1.93,1.01,3.62,2.22,5.04,3.62,1.42,1.4,2.55,3.1,3.37,5.1,.83,2,1.3,4.43,1.41,7.29,0,2.74-.47,5.23-1.41,7.47-.94,2.23-2.23,4.16-3.88,5.77-1.65,1.61-3.63,2.86-5.97,3.76-2.33,.89-4.89,1.34-7.67,1.34-6.25,0-12.7-2.32-19.35-6.97l2.65-5.01c1.08,.84,2.28,1.64,3.59,2.42,1.31,.77,2.67,1.46,4.1,2.05,1.42,.6,2.88,1.07,4.36,1.43,1.48,.36,2.9,.54,4.27,.54,1.76,0,3.46-.27,5.08-.8,1.62-.54,3.07-1.34,4.36-2.41,1.28-1.07,2.3-2.4,3.07-3.98,.77-1.58,1.15-3.41,1.15-5.5-.12-1.97-.5-3.65-1.15-5.05-.66-1.4-1.57-2.62-2.73-3.67-1.17-1.04-2.56-1.97-4.18-2.77-1.62-.8-3.46-1.62-5.51-2.46h.09c-3.36-1.31-6.14-2.58-8.33-3.8-2.19-1.22-4.03-2.88-5.51-4.96-1.54-2.14-2.3-4.77-2.3-7.87,0-2.32,.42-4.44,1.26-6.35,.84-1.91,2.01-3.54,3.5-4.92,1.49-1.37,3.28-2.44,5.36-3.22,2.08-.77,4.34-1.19,6.79-1.25,2.73,0,5.59,.4,8.58,1.21,2.99,.8,5.68,1.86,8.07,3.17l-2.31,4.92c-2.05-1.07-4.31-1.98-6.79-2.73-2.48-.75-4.83-1.12-7.05-1.12"/>
      <path class="cls-4" d="M62.03,1265.28c6.21-.38,11.2-2.94,14.98-7.7,3.78-4.75,5.67-11.32,5.67-19.7v-84.17h8.5v84.59c0,5.56-.74,10.55-2.23,14.97-1.48,4.42-3.53,8.17-6.14,11.23-2.61,3.06-5.69,5.44-9.24,7.13-3.55,1.7-7.4,2.63-11.54,2.83v-9.18Z"/>
      <path class="cls-4" d="M190.21,1246.35c3.51,0,6.72-.61,9.65-1.84s5.47-2.97,7.62-5.23c2.16-2.26,3.84-5.01,5.06-8.26,1.21-3.25,1.82-6.89,1.82-10.94v-65.95h8.9v66.38c0,5.37-.83,10.22-2.5,14.55-1.67,4.33-3.98,8.03-6.95,11.09-2.97,3.06-6.47,5.39-10.52,6.99-4.05,1.6-8.41,2.4-13.09,2.4s-9.02-.8-13.02-2.4c-4-1.6-7.49-3.93-10.46-6.99-2.97-3.06-5.28-6.76-6.95-11.09-1.67-4.33-2.5-9.18-2.5-14.55v-66.38h8.9v65.95c0,4.05,.61,7.7,1.82,10.94,1.21,3.25,2.88,6,4.99,8.26,2.11,2.26,4.63,4,7.56,5.23,2.92,1.22,6.14,1.84,9.65,1.84"/>
      <polygon class="cls-4" points="298.68 1154.13 298.68 1245.22 348.87 1245.22 348.87 1254.4 289.78 1254.4 289.78 1154.13 298.68 1154.13"/>
      <polygon class="cls-4" points="467.33 1154.13 467.33 1163.31 417 1163.31 417 1210.48 462.2 1210.48 462.2 1219.66 417 1219.66 417 1245.22 469.08 1245.22 469.08 1254.4 408.1 1254.4 408.1 1154.13 467.33 1154.13"/>
      <path class="cls-4" d="M556.78,1162.18c-5.67,0-10.19,1.46-13.56,4.38-3.37,2.92-5.06,6.64-5.06,11.16,.09,2.45,.67,4.57,1.75,6.35,1.08,1.79,2.54,3.39,4.38,4.8,1.84,1.42,4.03,2.73,6.54,3.96,2.52,1.22,5.35,2.5,8.5,3.81,3.69,1.51,7.06,3.06,10.12,4.66,3.06,1.6,5.71,3.51,7.96,5.72,2.25,2.21,4.03,4.9,5.33,8.05,1.3,3.16,2.05,6.99,2.23,11.51,0,4.33-.74,8.26-2.22,11.79-1.48,3.53-3.52,6.57-6.12,9.11-2.6,2.54-5.74,4.52-9.42,5.93-3.68,1.41-7.72,2.12-12.11,2.12-9.87,0-20.06-3.67-30.56-11.02l4.18-7.91c1.71,1.32,3.59,2.59,5.67,3.81,2.07,1.22,4.23,2.31,6.48,3.25,2.25,.94,4.54,1.69,6.88,2.26,2.34,.56,4.59,.85,6.75,.85,2.79,0,5.46-.42,8.03-1.27,2.56-.85,4.86-2.12,6.88-3.81,2.02-1.7,3.64-3.79,4.86-6.29,1.21-2.49,1.82-5.39,1.82-8.69-.18-3.11-.79-5.76-1.82-7.98-1.03-2.21-2.47-4.14-4.32-5.79-1.84-1.65-4.05-3.11-6.61-4.38-2.56-1.27-5.46-2.56-8.7-3.88h.13c-5.31-2.07-9.69-4.07-13.16-6-3.46-1.93-6.36-4.54-8.7-7.84-2.43-3.39-3.64-7.53-3.64-12.43,0-3.67,.66-7.01,1.99-10.03,1.33-3.01,3.17-5.6,5.53-7.77,2.36-2.17,5.18-3.86,8.47-5.08,3.28-1.22,6.86-1.88,10.73-1.98,4.32,0,8.84,.63,13.56,1.91,4.72,1.27,8.97,2.94,12.75,5.01l-3.64,7.77c-3.24-1.69-6.81-3.13-10.73-4.31-3.91-1.17-7.62-1.76-11.13-1.76"/>
      <path class="cls-4" d="M150.4,1323.46l-41.42,107.19-41.29-107.19h10.26l31.44,84.03c5.22-14.03,10.39-28.03,15.51-42.02,5.13-13.98,10.26-27.98,15.38-42.02h10.12Z"/>
      <polygon class="cls-4" points="251.46 1323.6 251.46 1332.78 201.13 1332.78 201.13 1379.95 246.33 1379.95 246.33 1389.13 201.13 1389.13 201.13 1414.69 253.21 1414.69 253.21 1423.87 192.23 1423.87 192.23 1323.6 251.46 1323.6"/>
      <path class="cls-4" d="M322.69,1390.12h-14.7v33.75h-8.9v-100.13h24.96c8.81,0,16.01,2.97,21.59,8.9,5.76,5.84,8.64,13.89,8.64,24.15,0,9.13-3.1,17-9.31,23.58-3.87,4.05-8.14,6.87-12.82,8.47,3.42,5.75,7,11.61,10.75,17.58,3.75,5.98,7.36,11.79,10.83,17.44h-11.06l-19.97-33.75Zm-14.7-57.2v48.02h14.25c6.45,.57,11.87-1.5,16.27-6.21,4.57-4.8,6.85-10.73,6.85-17.79,0-3.39-.47-6.52-1.41-9.39-.94-2.87-2.37-5.37-4.3-7.49-1.93-2.12-4.35-3.81-7.26-5.08-2.91-1.27-6.34-1.95-10.28-2.05h-14.12Z"/>
      <path class="cls-4" d="M480.28,1323.46l-.27,104.93-71.37-84.59c0,13.28,.02,26.62,.07,40.04,.04,13.42,.07,26.76,.07,40.04h-8.9l.41-104.79,71.37,85.3v-80.92h8.64Z"/>
      <polygon class="cls-4" points="590.38 1323.6 590.38 1332.78 540.05 1332.78 540.05 1379.95 585.25 1379.95 585.25 1389.13 540.05 1389.13 540.05 1414.69 592.13 1414.69 592.13 1423.87 531.15 1423.87 531.15 1323.6 590.38 1323.6"/>
    </g>
  </g>
</svg>