<?xml version="1.0" encoding="UTF-8"?>
<svg id="Layer_2" data-name="Layer 2" xmlns="http://www.w3.org/2000/svg" viewBox="0 0 628.06 776.33">
  <defs>
    <style>
      .cls-1 {
        fill: #91d5c6;
      }

      .cls-2 {
        fill: #d5a015;
      }

      .cls-3 {
        fill: #d8632a;
      }

      .cls-4 {
        fill: #17243b;
      }

      .cls-5 {
        fill: #1f7765;
      }

      .cls-6 {
        fill: #384f8e;
      }
    </style>
  </defs>
  <g id="Calque_1" data-name="Calque 1">
    <g>
      <path class="cls-4" d="M95.92,492.36l42.11-25.49c2.26-1.37,5.2-.61,6.52,1.67,8.79,15.21,17.77,27.38,37.06,27.38s32.87-7.89,32.87-38.57V253.46c0-2.6,2.11-4.72,4.72-4.72h51.93c2.6,0,4.72,2.11,4.72,4.72v204.78c0,63.54-37.25,92.47-91.59,92.47-46.94,0-75.04-23.24-90.06-52.1-1.15-2.22-.41-4.95,1.73-6.24Z"/>
      <path class="cls-4" d="M356.85,248.74h55.38c1.86,0,3.55,1.09,4.31,2.79l50.03,112.03c8.15,18.18,16.53,44.89,20.64,58.62,.76,2.55,4.38,2.54,5.12-.01,3.99-13.65,12.12-40.15,20.26-58.61l48.73-111.99c.75-1.72,2.45-2.83,4.32-2.83h49.33c3.4,0,5.68,3.48,4.32,6.59l-126.51,291.22c-.75,1.72-2.45,2.84-4.32,2.84h0c-1.85,0-3.53-1.09-4.3-2.77L352.55,255.4c-1.41-3.12,.87-6.66,4.3-6.66Z"/>
      <path class="cls-2" d="M585.46,203.44c-13.44-22.89-29.88-44.13-48.88-63.12-.34-.34-.71-.65-1.11-.92-.84-.58-5.28-3.23-10.01,.99-.33,.3-.8,.74-1.39,1.3-1,.96-2.43,2.36-4.27,4.18-3.05,3.02-7.26,7.25-12.53,12.56-8.95,9.03-17.97,18.21-18.06,18.3-2.98,3.03-2.96,7.9,.05,10.91,15.74,15.74,29.23,33.41,40.09,52.51,20.79,36.57,31.79,78.41,31.79,121.02,0,65.55-25.53,127.17-71.88,173.53-11.49,11.49-24.1,21.85-37.46,30.8-3.53,2.36-4.5,7.12-2.18,10.68,27.15,41.56,28.83,43.33,29.38,43.91,1.44,1.52,3.44,2.39,5.53,2.42,.04,0,.07,0,.11,0,2.58,0,4.04-1.08,6.05-2.57,.94-.69,2.29-1.7,3.94-2.96,2.33-1.77,7.08-5.4,12.73-9.87,9.04-7.16,21.45-17.32,29.21-25.08,58.99-58.99,91.48-137.42,91.48-220.84,0-55.7-14.73-110.24-42.6-157.72Z"/>
      <path class="cls-5" d="M323.32,623.22c0-1.03-.4-2.02-1.13-2.75-.73-.73-1.72-1.14-2.75-1.14-71.61,0-138.93-27.89-189.57-78.52-31.77-31.77-55.17-71.06-67.67-113.63-.14-.55-.41-1.08-.79-1.53-1.5-1.78-3.41-1.5-6.05-1.11-1.49,.22-3.63,.58-6.37,1.06-4.57,.81-10.89,1.99-18.79,3.51-13.43,2.58-26.96,5.29-27.1,5.31-1.05,.21-1.97,.85-2.54,1.76-.56,.91-.72,2.02-.44,3.06,15.03,54.86,44.49,105.38,85.21,146.09,62.53,62.53,145.67,96.97,234.11,96.97,1.57,0,2.98-.94,3.58-2.39,.27-.66,.35-1.38,.25-2.06-.17-3.09-.07-34.19,.04-54.64Z"/>
      <path class="cls-1" d="M304.46,505.3c-.93-1.17-2.29-1.9-3.78-2.05-43.29-4.09-82.49-28.73-104.87-65.93-38.21-63.53-19.57-145.06,42.42-185.6,.95-.62,1.91-1.23,2.88-1.83,2.52-1.56,3.34-4.84,1.86-7.41l-24.17-41.86c-.82-1.42-2.22-2.39-3.83-2.67-1.5-.25-3.03,.12-4.24,1.04-.18,.08-.49,.19-.71,.27-.84,.3-1.88,.68-2.92,1.34-42.53,27.22-72.69,69.25-84.91,118.34-12.72,51.09-4.78,104.08,22.36,149.2,27.13,45.12,70.22,76.97,121.31,89.69,7.82,1.95,21.59,3.96,27.15,4.74,.25,.04,.51,.05,.76,.05,1.19,0,2.36-.39,3.32-1.12,1.16-.89,1.93-2.2,2.12-3.65l6.4-48.43c.2-1.48-.22-2.97-1.15-4.14Z"/>
      <path class="cls-3" d="M608.03,645.02l-36.36-36.36c-3.02-3.02-7.9-3.03-10.93-.03-8.87,8.79-18.24,17.14-27.84,24.83-62.05,49.68-137.14,75.94-217.16,75.94-20.61,0-41.25-1.8-61.35-5.35-2.06-.36-4.18,.12-5.88,1.34-1.7,1.22-2.83,3.08-3.13,5.15-3.25,21.9-7.06,46.64-7.79,49.75-.61,2.06-.34,4.29,.76,6.15,1.16,1.95,3.11,3.3,5.34,3.69,23.61,4.11,47.85,6.19,72.05,6.19,46.76,0,92.59-7.65,136.2-22.75,43.44-15.04,83.89-37.18,120.22-65.82,12.41-9.78,24.47-20.46,35.85-31.75,1.46-1.45,2.29-3.43,2.29-5.49,0-2.06-.81-4.04-2.27-5.5Z"/>
      <path class="cls-4" d="M614.96,248.74h-49.33c-1.88,0-3.57,1.11-4.32,2.83l-48.73,111.99c-8.13,18.46-16.27,44.96-20.26,58.61-.75,2.56-4.36,2.56-5.12,.01-4.11-13.73-12.48-40.44-20.64-58.62l-50.03-112.03c-.76-1.7-2.44-2.79-4.31-2.79h-55.38c-3.42,0-5.71,3.54-4.3,6.66l78.02,172.66h113.68l75.03-172.72c1.35-3.11-.93-6.59-4.32-6.59Z"/>
      <path class="cls-4" d="M214.49,332.14v125.21c0,30.68-12.71,38.57-32.87,38.57s-28.27-12.17-37.06-27.38c-1.32-2.28-4.26-3.04-6.52-1.67l-1.35,.82v73.02c13.1,6.29,28.83,9.99,47.57,9.99,54.34,0,91.59-28.93,91.59-92.47v-126.09h-61.36Z"/>
      <path class="cls-6" d="M540.25,79.05c-.1-.07-.21-.13-.32-.19-31.71-25.41-67.1-45.09-105.19-58.49C396.31,6.85,355.89,0,314.6,0c-.86,0-1.72,.01-2.58,.02h-1.17c-2.83,.04-5.11,2.35-5.11,5.18V56.61c0,1.38,.55,2.7,1.54,3.68,.97,.96,2.27,1.49,3.63,1.49,.02,0,.04,0,.06,0,1.21-.01,2.42-.02,3.64-.02,70.17,0,135.75,23.4,189.65,67.68,.93,.76,2.09,1.17,3.28,1.17,.24,0,.49-.02,.73-.05,1.43-.2,2.72-1,3.53-2.2,12.05-17.61,25.74-37.28,28.66-40.94,.86-.67,1.51-1.61,1.81-2.7,.59-2.14-.22-4.42-2.01-5.68Z"/>
    </g>
  </g>
</svg>